<?xml version="1.0" encoding="UTF-8"?>
<svg version="1.1" xmlns="http://www.w3.org/2000/svg" width="196" height="176">
<path d="M0 0 C2.75 1 2.75 1 5 3 C5.5477204 4.25947889 6.06553584 5.53214406 6.5625 6.8125 C8.90599954 11.93594029 12.84974724 13.75182292 17.82421875 16.0234375 C21.84934017 17.26117471 24.78987137 16.98322822 28.875 16.25 C31 16 31 16 33.9375 17.1875 C37.14426858 20.00556936 38.87696217 21.55430544 39.25 25.9375 C39 29 39 29 38.25 31.4375 C37.93182813 34.6987617 38.98053169 36.68940511 40.6875 39.43359375 C42.68387107 41.81616756 45.20000453 42.74893819 48 44 C50.87458039 46.58712235 51.0023243 48.01830387 51.5 51.9375 C51.38732648 55.49002984 51.00327211 55.99605669 48.5625 58.9375 C47.716875 59.618125 46.87125 60.29875 46 61 C43.68536925 63.31463075 44.47524557 68.68995502 44.3125 71.8125 C44.25255859 72.72837891 44.19261719 73.64425781 44.13085938 74.58789062 C44.08380859 75.47283203 44.03675781 76.35777344 43.98828125 77.26953125 C43.94227783 78.08010986 43.89627441 78.89068848 43.84887695 79.72583008 C44.01921357 82.28913471 44.84043882 83.73668843 46 86 C46 91.14440749 45.84992855 93.02569166 42.4375 96.9375 C39.3764439 99.17836882 36.78155443 99.19371697 33.02734375 99.453125 C28.74162586 100.60919534 26.23173228 104.36007608 24 108 C23.29843058 110.13401243 23.29843058 110.13401243 22.9375 112.25 C22 116 22 116 19.3125 118.5 C15.45264883 120.24785713 13.19034555 120.60950481 9 120 C6.24670979 118.20437595 4.47372539 116.94745078 3 114 C3.00864083 111.72314088 3.13048722 109.46453697 3.2578125 107.19140625 C3.16881841 104.95507869 3.16881841 104.95507869 1.8046875 103.27734375 C-0.46570051 101.67038081 -2.25642924 101.39193868 -5 101 C-8.69381458 100.4723122 -10.68041366 100.01546224 -13 97 C-14.21762731 93.34711807 -14.39075851 90.84245864 -14 87 C-11.70939134 83.36197448 -10.25351657 81.4087554 -6.125 80.0625 C-3 80 -3 80 0.3125 80.875 C5.97399511 81.06691509 8.95640438 77.67682958 13 74 C11.02551789 71.64025308 9.0244454 69.31621691 7 67 C6.47019531 66.35546875 5.94039062 65.7109375 5.39453125 65.046875 C1.28619517 60.40182042 -1.69493242 59.43188171 -7.75390625 58.57421875 C-10 58 -10 58 -12.625 55.25 C-14.11217978 51.73484779 -14.56060245 49.76404504 -14 46 C-11.73529412 41.36764706 -11.73529412 41.36764706 -9 40 C-7.82512566 32.93180435 -7.04070068 25.65842348 -10 19 C-10.50273438 18.53722656 -11.00546875 18.07445313 -11.5234375 17.59765625 C-14.22605434 14.67339623 -14.12147542 10.83997297 -14 7 C-11.18806933 0.39196292 -6.80968881 -0.81449219 0 0 Z M3 18 C2.01 18.495 2.01 18.495 1 19 C1 25.93 1 32.86 1 40 C4.78332403 38.10833799 8.25035316 35.97860864 11.75 33.625 C12.35199219 33.23828125 12.95398438 32.8515625 13.57421875 32.453125 C15.52158595 31.18245789 15.52158595 31.18245789 18 29 C18 27.68 18 26.36 18 25 C15.54595776 23.80283341 13.08748321 22.6170654 10.625 21.4375 C9.92632812 21.09525391 9.22765625 20.75300781 8.5078125 20.40039062 C6.69947784 19.53969288 4.85148044 18.76347564 3 18 Z M13.5 40.4375 C12.87625488 40.85 12.25250977 41.2625 11.60986328 41.6875 C8.46450383 44.01804004 6.56885216 46.00199212 5.66015625 49.87890625 C5.4854948 53.51367118 6.55802735 55.17879034 8.96484375 57.84375 C10.2668141 59.08623947 11.59210719 60.3046653 12.9375 61.5 C13.60974609 62.13164063 14.28199219 62.76328125 14.97460938 63.4140625 C16.63129113 64.96499862 18.30507017 66.49113396 20 68 C20.71555054 67.38185425 20.71555054 67.38185425 21.44555664 66.7512207 C22.07324951 66.21070068 22.70094238 65.67018066 23.34765625 65.11328125 C23.96906494 64.57743408 24.59047363 64.04158691 25.23071289 63.48950195 C26.59443584 62.34143052 28.00699787 61.25120671 29.4375 60.1875 C31.59481637 57.16725708 31.12668483 54.87763944 30.94140625 51.26171875 C31.02569158 48.00830492 32.32033321 45.72945853 34 43 C32.53232232 40.00083257 31.22522716 37.67050893 28.22265625 36.02734375 C22.26807496 34.53038197 18.27100197 37.18150681 13.5 40.4375 Z M33.37109375 65.609375 C32.73300781 66.31578125 32.09492188 67.0221875 31.4375 67.75 C30.79683594 68.44609375 30.15617187 69.1421875 29.49609375 69.859375 C27.61809341 72.11116513 27.61809341 72.11116513 28 76 C29.14646548 77.89661743 29.14646548 77.89661743 31 79 C33.16299211 78.77242269 33.16299211 78.77242269 35 78 C36.20568053 73.32798795 36.09382426 68.78503708 36 64 C34.73691773 63.8828618 34.73691773 63.8828618 33.37109375 65.609375 Z M12.9375 84.0625 C12.10508789 84.6184082 12.10508789 84.6184082 11.25585938 85.18554688 C8.07933413 87.48765713 7.04475431 88.83490241 6.0078125 92.66015625 C5.64693667 96.07951773 5.64693667 96.07951773 7.9375 98.375 C11.69720245 100.36994416 14.71077173 101.72026663 19 101 C22.14243033 99.19162028 24.14443129 97.10751868 26 94 C26.85109499 90.79202658 26.87429204 88.20374139 26 85 C23.81145577 81.89138486 23.81145577 81.89138486 21 80 C17.7293361 80 15.49934741 82.21377503 12.9375 84.0625 Z " fill="#1B78AE" transform="translate(134,41)"/>
<path d="M0 0 C3.27513256 2.77725018 5.22602091 5.7611957 6 10 C6.09023555 11.54955913 6.13048974 13.10245167 6.13371277 14.65463257 C6.14011024 16.05083076 6.14011024 16.05083076 6.14663696 17.47523499 C6.14595718 18.99642189 6.14595718 18.99642189 6.14526367 20.54833984 C6.14862228 21.62193253 6.1519809 22.69552521 6.15544128 23.801651 C6.16494916 27.35475823 6.16689431 30.90781833 6.16796875 34.4609375 C6.1711814 36.92949442 6.17454548 39.39805115 6.17805481 41.86660767 C6.18404564 47.04323773 6.18589475 52.21985109 6.18530273 57.39648438 C6.18520111 64.02991766 6.1988544 70.66324392 6.21607494 77.29665184 C6.22719292 82.39586885 6.229222 87.49505998 6.22869301 92.59428787 C6.22987339 95.03990676 6.23429839 97.48552631 6.24202538 99.93113327 C6.25182114 103.35178883 6.24894871 106.7722118 6.24291992 110.19287109 C6.24853943 111.20294724 6.25415894 112.21302338 6.25994873 113.25370789 C6.22811459 120.36082201 5.57616637 126.09382443 0.59765625 131.609375 C-4.69550255 136.21662325 -10.94908375 137.73557502 -17.84765625 137.4453125 C-32.86478743 135.32393337 -45.19648434 129.0164565 -55.15625 117.49609375 C-56.83859767 115.21850866 -57.88834603 113.23331334 -58.9375 110.625 C-60.05382739 108.08421865 -60.59763884 107.20379332 -63.10546875 105.93359375 C-64.82479688 105.33915937 -66.54626124 104.75087692 -68.26953125 104.16796875 C-76.26314011 100.74867111 -81.61109095 94.08901189 -85.16015625 86.359375 C-88.95391362 75.70156359 -87.19818285 65.31891845 -82.78125 55.2109375 C-78.99471886 47.57476637 -73.93345901 42.27109782 -66.84375 37.5703125 C-64.59358131 35.65385527 -64.0537432 34.16122961 -63.125 31.375 C-61.14099335 25.99771213 -58.32012667 21.63869126 -55 17 C-54.34 16.01 -53.68 15.02 -53 14 C-52.34 14 -51.68 14 -51 14 C-51 13.34 -51 12.68 -51 12 C-37.70153408 0.75594825 -16.86471041 -8.64115638 0 0 Z M-49.05859375 24.3125 C-52.86977691 29.58834308 -55.24837557 35.32233798 -57 41.5625 C-57.33 42.366875 -57.66 43.17125 -58 44 C-58.75152344 44.29519531 -59.50304687 44.59039062 -60.27734375 44.89453125 C-66.4647102 47.40676182 -71.49463365 53.44487999 -74.5 59.3125 C-77.68069977 67.13172028 -78.50573921 76.18316027 -76 84.375 C-72.93593032 91.11311619 -67.11399518 94.6877687 -60.4375 97.25 C-53.71529976 100.0540117 -51.45365296 104.87681428 -48 111 C-43.799299 117.14935952 -38.560856 120.60112641 -32 124 C-31.37480469 124.34289062 -30.74960938 124.68578125 -30.10546875 125.0390625 C-23.80252323 127.9776907 -15.7537993 128.14958286 -9 127 C-6.08049607 124.96498566 -4.27758726 123.35320074 -3.54385376 119.77634811 C-3.3612728 116.93633695 -3.34758854 114.13626831 -3.38476562 111.29052734 C-3.37644211 109.67269096 -3.37644211 109.67269096 -3.36795044 108.02217102 C-3.35614617 104.45964034 -3.38043593 100.89837908 -3.40625 97.3359375 C-3.40796068 94.86162372 -3.40789585 92.38730813 -3.40612793 89.91299438 C-3.40778154 84.72958012 -3.4264906 79.54659817 -3.45800781 74.36328125 C-3.4977269 67.71033445 -3.50204858 61.0582251 -3.49454498 54.40514183 C-3.49147992 49.29742224 -3.50357869 44.1898304 -3.52067566 39.08214188 C-3.52771909 36.62847316 -3.53082857 34.17478997 -3.52998352 31.7211113 C-3.53177555 28.29736752 -3.55310592 24.87430928 -3.58007812 21.45068359 C-3.57714752 20.43139267 -3.57421692 19.41210175 -3.57119751 18.36192322 C-3.5825473 17.43105392 -3.59389709 16.50018463 -3.60559082 15.54110718 C-3.60931953 14.73181448 -3.61304825 13.92252178 -3.61688995 13.08870506 C-4.0926958 10.49462515 -4.96355851 9.62206156 -7 8 C-22.19131792 1.81094455 -39.69829876 13.32796777 -49.05859375 24.3125 Z " fill="#0F96CE" transform="translate(99,27)"/>
<path d="M0 0 C2.97562606 4.57223464 3.43730317 8.64180251 3.40405273 13.96142578 C3.41091599 14.73616241 3.41777924 15.51089905 3.42485046 16.30911255 C3.44306386 18.85470201 3.43929037 21.39967225 3.43359375 23.9453125 C3.43815681 25.72077636 3.44346276 27.49623846 3.44947815 29.271698 C3.45839745 32.98540442 3.455998 36.69889563 3.44604492 40.41259766 C3.43453183 45.17208833 3.45480821 49.93083966 3.48396206 54.69023323 C3.50229926 58.35339064 3.50203701 62.01636983 3.49632454 65.67956161 C3.49617115 67.43465083 3.50222981 69.189752 3.51461601 70.94479752 C3.52948513 73.39612724 3.51888185 75.84607694 3.50170898 78.29736328 C3.51137695 79.02161499 3.52104492 79.7458667 3.53100586 80.49206543 C3.48114981 83.88855691 3.20125959 85.72511516 1.17176819 88.49703979 C-1 90 -1 90 -4.25 89.75 C-5.61125 89.37875 -5.61125 89.37875 -7 89 C-9.53440814 82.33508698 -9.02500354 76.09856223 -8.625 69.0625 C-8.53992188 67.32129883 -8.53992188 67.32129883 -8.453125 65.54492188 C-8.31243361 62.69592114 -8.16110018 59.84790737 -8 57 C-17.58726746 56.49167478 -17.58726746 56.49167478 -27 58 C-29.72199566 60.70901317 -30.72817618 62.82703852 -31.96484375 66.43359375 C-33 69 -33 69 -34.9921875 70.37890625 C-37 71 -37 71 -39.1875 70.5 C-41 69 -41 69 -41.77880859 66.29541016 C-42.04842915 62.27848052 -41.16124878 60.34970931 -39.3515625 56.7734375 C-39.06373901 56.19224655 -38.77591553 55.6110556 -38.47937012 55.01225281 C-37.54192849 53.12578478 -36.583572 51.25080517 -35.625 49.375 C-34.64401582 47.41361436 -33.66872635 45.44947176 -32.69406128 43.48493958 C-32.04417932 42.17532342 -31.39258894 40.86655365 -30.73928833 39.55863953 C-28.03542084 34.13027651 -25.54828944 28.62158435 -23.125 23.0625 C-13.78173399 1.93747231 -13.78173399 1.93747231 -8.9921875 -1.3984375 C-5.51902029 -2.4471978 -3.23792786 -1.41291398 0 0 Z M-9 17 C-10.85638226 20.80619129 -12.7076563 24.61481041 -14.55419922 28.42578125 C-15.18332711 29.72236283 -15.81385541 31.01826587 -16.44580078 32.31347656 C-17.35296172 34.17337011 -18.25508803 36.03563141 -19.15625 37.8984375 C-19.70087891 39.01911621 -20.24550781 40.13979492 -20.80664062 41.29443359 C-22.13452099 43.81214084 -22.13452099 43.81214084 -22 46 C-17.38 46 -12.76 46 -8 46 C-8 36.43 -8 26.86 -8 17 C-8.33 17 -8.66 17 -9 17 Z " fill="#0F8DC8" transform="translate(82,49)"/>
<path d="M0 0 C2.75 1 2.75 1 5 3 C5.5477204 4.25947889 6.06553584 5.53214406 6.5625 6.8125 C8.90599954 11.93594029 12.84974724 13.75182292 17.82421875 16.0234375 C21.84934017 17.26117471 24.78987137 16.98322822 28.875 16.25 C31 16 31 16 33.9375 17.1875 C37.14426858 20.00556936 38.87696217 21.55430544 39.25 25.9375 C39 29 39 29 38.25 31.4375 C37.9321478 34.69548508 38.98035408 36.68461044 40.6796875 39.4296875 C42.67699565 41.80518417 45.20516468 42.75785097 48 44 C49.50037596 48.50112787 49.71487761 53.50776626 48 58 C43.01207023 60.32196731 38.44569367 61.43274024 33 62 C30.60347107 58.4052066 30.8614629 57.14494781 31.25 52.9375 C31.33765625 51.87402344 31.4253125 50.81054688 31.515625 49.71484375 C32 47 32 47 34 45 C33.63723355 42.17042171 32.90305236 39.70915709 32 37 C26.54273268 36.12984517 22.52513936 36.07298994 17.703125 39.00390625 C15.56649366 40.60445023 13.56634983 42.29605962 11.53125 44.03125 C9 46 9 46 6 46 C5.67 48.97 5.34 51.94 5 55 C-3.42857143 57.28571429 -3.42857143 57.28571429 -8 57 C-8.66 55.35 -9.32 53.7 -10 52 C-10.66 52.99 -11.32 53.98 -12 55 C-14.33909307 51.4913604 -14.41291057 50.12910567 -14 46 C-11.73529412 41.36764706 -11.73529412 41.36764706 -9 40 C-7.82512566 32.93180435 -7.04070068 25.65842348 -10 19 C-10.50273438 18.53722656 -11.00546875 18.07445313 -11.5234375 17.59765625 C-14.22605434 14.67339623 -14.12147542 10.83997297 -14 7 C-11.18806933 0.39196292 -6.80968881 -0.81449219 0 0 Z M3 18 C2.01 18.495 2.01 18.495 1 19 C1 25.93 1 32.86 1 40 C4.78332403 38.10833799 8.25035316 35.97860864 11.75 33.625 C12.35199219 33.23828125 12.95398438 32.8515625 13.57421875 32.453125 C15.52158595 31.18245789 15.52158595 31.18245789 18 29 C18 27.68 18 26.36 18 25 C15.54595776 23.80283341 13.08748321 22.6170654 10.625 21.4375 C9.92632812 21.09525391 9.22765625 20.75300781 8.5078125 20.40039062 C6.69947784 19.53969288 4.85148044 18.76347564 3 18 Z " fill="#0F85C6" transform="translate(134,41)"/>
<path d="M0 0 C3.42728543 4.17700411 4.12617933 8.44804024 4.12025452 13.73297119 C4.12162918 14.6808551 4.12300385 15.62873901 4.12442017 16.60534668 C4.11902725 18.1546991 4.11902725 18.1546991 4.11352539 19.73535156 C4.11367142 20.82833557 4.11381744 21.92131958 4.1139679 23.04742432 C4.11327096 26.6618447 4.10548876 30.27621361 4.09765625 33.890625 C4.09579129 36.39597546 4.09436776 38.90132629 4.09336853 41.40667725 C4.08993987 47.32810211 4.08205751 53.24951044 4.07201904 59.17092681 C4.05974001 66.57488542 4.05437302 73.97884632 4.04882812 81.3828125 C4.0381016 94.58855106 4.02122457 107.79427436 4 121 C3.67 121 3.34 121 3 121 C2.67 122.98 2.34 124.96 2 127 C1.34 127 0.68 127 0 127 C-0.33 127.99 -0.66 128.98 -1 130 C-1 129.34 -1 128.68 -1 128 C-1.66 127.67 -2.32 127.34 -3 127 C-2.7215625 125.7934375 -2.7215625 125.7934375 -2.4375 124.5625 C-2.293125 123.716875 -2.14875 122.87125 -2 122 C-2.33 121.67 -2.66 121.34 -3 121 C-3.10771905 119.5456272 -3.14681259 118.08610424 -3.15821838 116.62779236 C-3.1680072 115.68403244 -3.17779602 114.74027252 -3.18788147 113.76791382 C-3.19651466 112.20238266 -3.19651466 112.20238266 -3.20532227 110.60522461 C-3.21522186 109.51267868 -3.22512146 108.42013275 -3.23532104 107.29447937 C-3.2670445 103.66378994 -3.29173618 100.03308741 -3.31640625 96.40234375 C-3.33696642 93.89270171 -3.35796263 91.38306322 -3.37937927 88.87342834 C-3.4290351 82.93068679 -3.47427523 76.98792189 -3.51740164 71.04513031 C-3.57156869 63.61794064 -3.63254588 56.19080958 -3.69335938 48.76367188 C-3.8010592 35.50915442 -3.90266698 22.25459743 -4 9 C-11.66559356 5.16720322 -23.31133479 8.4410244 -31 11 C-31.71542969 11.37125 -32.43085937 11.7425 -33.16796875 12.125 C-35.70869606 13.3384817 -37.35470982 12.73480283 -40 12 C-40 12.99 -40 13.98 -40 15 C-41.37194417 16.00386158 -42.75756745 16.99454252 -44.20703125 17.8828125 C-46.13162564 19.0820151 -47.92943159 20.39888634 -49.75 21.75 C-53 24 -53 24 -55 24 C-54.67 22.68 -54.34 21.36 -54 20 C-53.34 20 -52.68 20 -52 20 C-52 19.01 -52 18.02 -52 17 C-51.34 17 -50.68 17 -50 17 C-49.67 15.68 -49.34 14.36 -49 13 C-47.68 13 -46.36 13 -45 13 C-44.690625 12.13375 -44.690625 12.13375 -44.375 11.25 C-42.51490783 8.20621281 -39.94908576 6.94514167 -37 5 C-36.67 4.01 -36.34 3.02 -36 2 C-24.9702177 -3.04516856 -11.23306395 -5.76523852 0 0 Z " fill="#0886C9" transform="translate(99,27)"/>
<path d="M0 0 C1.8125 2 1.8125 2 3 4 C3.33 4 3.66 4 4 4 C4 21.82 4 39.64 4 58 C3.67 58 3.34 58 3 58 C2.9498877 56.74864258 2.89977539 55.49728516 2.84814453 54.20800781 C2.65973617 49.5633886 2.45935949 44.91934951 2.25537109 40.27539062 C2.16877159 38.26576309 2.08541422 36.2559931 2.00537109 34.24609375 C1.8897236 31.35633424 1.76240815 28.46728843 1.6328125 25.578125 C1.59938751 24.68007141 1.56596252 23.78201782 1.53152466 22.85675049 C1.49163422 22.01618103 1.45174377 21.17561157 1.41064453 20.30957031 C1.36401169 19.20370575 1.36401169 19.20370575 1.31643677 18.07550049 C0.95972185 15.73581668 0.15533675 14.05215482 -1 12 C-2.20516286 16.89154337 -2.33461434 21.80275122 -2.5625 26.8125 C-2.62727539 28.13797852 -2.62727539 28.13797852 -2.69335938 29.49023438 C-2.79891536 31.65999623 -2.89991071 33.8299791 -3 36 C-3.33 36 -3.66 36 -4 36 C-4.33 28.74 -4.66 21.48 -5 14 C-5.99 13.67 -6.98 13.34 -8 13 C-7.67 14.98 -7.34 16.96 -7 19 C-8.98 19 -10.96 19 -13 19 C-13.33 18.34 -13.66 17.68 -14 17 C-14.309375 17.78375 -14.61875 18.5675 -14.9375 19.375 C-16 22 -16 22 -17 24 C-17.66 24 -18.32 24 -19 24 C-19.12375 25.2375 -19.2475 26.475 -19.375 27.75 C-19.75746305 30.8762197 -20.30549523 33.28879237 -22 36 C-18.9254644 35.2236068 -18.9254644 35.2236068 -17 33 C-17.75 38.75 -17.75 38.75 -20 41 C-19.67 42.65 -19.34 44.3 -19 46 C-13.39 46.33 -7.78 46.66 -2 47 C-2.99 47.495 -2.99 47.495 -4 48 C-3.67 48.99 -3.34 49.98 -3 51 C-3 51.99 -3 52.98 -3 54 C-3.99 54 -4.98 54 -6 54 C-6 54.66 -6 55.32 -6 56 C-7.22976562 55.94457031 -8.45953125 55.88914063 -9.7265625 55.83203125 C-16.94537671 55.68393066 -16.94537671 55.68393066 -24 57 C-26.6451909 59.70570181 -27.68123548 61.88706524 -28.9296875 65.43359375 C-30 68 -30 68 -31.99609375 69.37890625 C-34 70 -34 70 -36.1875 69.5 C-38 68 -38 68 -38.77880859 65.29541016 C-39.04842915 61.27848052 -38.16124878 59.34970931 -36.3515625 55.7734375 C-36.06364838 55.1921106 -35.77573425 54.61078369 -35.47909546 54.01184082 C-34.54168347 52.12554485 -33.58339652 50.25070698 -32.625 48.375 C-31.64610475 46.41678016 -30.67297627 44.45576922 -29.70037842 42.49441528 C-29.05142872 41.18616442 -28.40075352 39.87876806 -27.74835205 38.57223511 C-25.00936979 33.07377315 -22.46998928 27.4993474 -20 21.875 C-11.62249192 3.02608185 -11.62249192 3.02608185 -8.0234375 0.75 C-5.16501506 -0.30949249 -3.01857776 -0.38535035 0 0 Z " fill="#119ED4" transform="translate(79,50)"/>
<path d="M0 0 C4.04362207 1.47040803 5.36347061 3.3967641 7.1875 7.125 C7.49042969 7.82882813 7.79335937 8.53265625 8.10546875 9.2578125 C8.87828135 11.18555831 8.87828135 11.18555831 11 12 C11.6875 14 11.6875 14 12 16 C10.26043342 17.73956658 7.8063378 17.37190386 5.4375 17.5625 C2.7459375 17.7790625 2.7459375 17.7790625 0 18 C0 25.26 0 32.52 0 40 C4.5698923 37.38863297 8.11033975 35.30031779 12 32 C14 33 14 33 15 34 C15.36162029 35.32594105 15.69728039 36.65938457 16 38 C14.02 38.495 14.02 38.495 12 39 C12 39.99 12 40.98 12 42 C10.68 42 9.36 42 8 42 C7.26010787 44.90624297 6.58349094 47.82150775 5.9375 50.75 C5.76089844 51.54921875 5.58429688 52.3484375 5.40234375 53.171875 C5.26957031 53.77515625 5.13679688 54.3784375 5 55 C-3.42857143 57.28571429 -3.42857143 57.28571429 -8 57 C-8.66 55.35 -9.32 53.7 -10 52 C-10.66 52.99 -11.32 53.98 -12 55 C-14.33909307 51.4913604 -14.41291057 50.12910567 -14 46 C-11.73529412 41.36764706 -11.73529412 41.36764706 -9 40 C-7.82512566 32.93180435 -7.04070068 25.65842348 -10 19 C-10.50273438 18.53722656 -11.00546875 18.07445313 -11.5234375 17.59765625 C-14.22605434 14.67339623 -14.12147542 10.83997297 -14 7 C-11.18806933 0.39196292 -6.80968881 -0.81449219 0 0 Z " fill="#1F86BF" transform="translate(134,41)"/>
<path d="M0 0 C0.66 0 1.32 0 2 0 C2.68959795 5.43058388 3.08494622 10.58400028 2.83984375 16.0546875 C2.86885426 18.32821992 2.86885426 18.32821992 5 21 C4.75875597 25.34239262 3.03029005 29.839094 0 33 C-1.96229147 33.22518099 -3.92884219 33.44228416 -5.90234375 33.5234375 C-9.55102207 34.35237373 -11.34205275 36.89178407 -13.59765625 39.73046875 C-15.66901158 43.08271791 -16.26854245 46.14322384 -17 50 C-17.66 50.66 -18.32 51.32 -19 52 C-23.41217199 51.63834656 -27.67443132 50.94621815 -32 50 C-33.04976964 46.85069107 -33.10131595 44.61185544 -33.0625 41.3125 C-33.05347656 40.31863281 -33.04445312 39.32476562 -33.03515625 38.30078125 C-33.02355469 37.54152344 -33.01195312 36.78226563 -33 36 C-29.7 36 -26.4 36 -23 36 C-22.67 35.34 -22.34 34.68 -22 34 C-21.401875 33.71125 -20.80375 33.4225 -20.1875 33.125 C-17.31332403 31.64685236 -15.93837701 30.64911524 -14 28 C-13.06657377 24.36593047 -12.48717714 20.71793081 -12 17 C-12.66 17 -13.32 17 -14 17 C-13.67 15.68 -13.34 14.36 -13 13 C-10.36 12.67 -7.72 12.34 -5 12 C-4.34 10.02 -3.68 8.04 -3 6 C-2.34 6 -1.68 6 -1 6 C-1.020625 5.195625 -1.04125 4.39125 -1.0625 3.5625 C-1 1 -1 1 0 0 Z " fill="#0A7AC0" transform="translate(173,107)"/>
<path d="M0 0 C2.55472895 2.22150343 3.37813874 3.69682912 4 7 C4.09023555 8.54955913 4.13048974 10.10245167 4.13371277 11.65463257 C4.13797775 12.58543137 4.14224274 13.51623016 4.14663696 14.47523499 C4.14618378 15.48935959 4.14573059 16.50348419 4.14526367 17.54833984 C4.14862228 18.62193253 4.1519809 19.69552521 4.15544128 20.801651 C4.16494916 24.35475823 4.16689431 27.90781833 4.16796875 31.4609375 C4.1711814 33.92949442 4.17454548 36.39805115 4.17805481 38.86660767 C4.18404564 44.04323773 4.18589475 49.21985109 4.18530273 54.39648438 C4.18520111 61.02991766 4.1988544 67.66324392 4.21607494 74.29665184 C4.22719292 79.39586885 4.229222 84.49505998 4.22869301 89.59428787 C4.22987339 92.03990676 4.23429839 94.48552631 4.24202538 96.93113327 C4.25182114 100.35178883 4.24894871 103.7722118 4.24291992 107.19287109 C4.24853943 108.20294724 4.25415894 109.21302338 4.25994873 110.25370789 C4.22811459 117.36082201 3.57616637 123.09382443 -1.40234375 128.609375 C-6.69235866 133.21388676 -12.9150246 134.69838595 -19.8046875 134.47265625 C-26.4196668 133.49415687 -32.70912903 131.21009269 -39 129 C-35.87819599 128.03338637 -33.47916205 128.01011091 -30.25 128.4375 C-29.45078125 128.53933594 -28.6515625 128.64117187 -27.828125 128.74609375 C-27.22484375 128.82988281 -26.6215625 128.91367188 -26 129 C-26 129.66 -26 130.32 -26 131 C-25.01 130.01 -25.01 130.01 -24 129 C-25.70892499 125.68539295 -25.70892499 125.68539295 -29.125 125.3125 C-30.07375 125.209375 -31.0225 125.10625 -32 125 C-31.01 124.505 -31.01 124.505 -30 124 C-29.505 123.01 -29.505 123.01 -29 122 C-28.01 122.33 -27.02 122.66 -26 123 C-23.50382632 123.17322707 -21.06005517 123.27658118 -18.5625 123.3125 C-17.24378906 123.34988281 -15.92507812 123.38726562 -14.56640625 123.42578125 C-11.08107904 123.26509652 -11.08107904 123.26509652 -8.8074646 121.6366272 C-5.94774861 117.46503515 -6.45972224 113.33069248 -6.51416016 108.38818359 C-6.51036346 107.30816574 -6.50656677 106.22814789 -6.50265503 105.11540222 C-6.49524076 101.54278601 -6.51664259 97.97098152 -6.5390625 94.3984375 C-6.54144615 91.92029923 -6.54235242 89.44215914 -6.5418396 86.96401978 C-6.54496896 81.77049448 -6.56154731 76.57724499 -6.58837891 71.38378906 C-6.62239426 64.71403012 -6.63000659 58.04465823 -6.62848854 51.37482262 C-6.62903132 46.25858653 -6.63998311 41.14241712 -6.65449142 36.02620316 C-6.66087189 33.56612274 -6.66480122 31.10603475 -6.66627884 28.6459465 C-6.67059655 25.21484134 -6.68806369 21.78406279 -6.70947266 18.35302734 C-6.70856628 17.3285701 -6.70765991 16.30411285 -6.70672607 15.24861145 C-6.71525604 14.31767166 -6.72378601 13.38673187 -6.73257446 12.42758179 C-6.73592615 11.61606848 -6.73927784 10.80455517 -6.74273109 9.96845055 C-6.82713415 7.76652782 -6.82713415 7.76652782 -9 6 C-10.31747324 5.30251417 -11.64914193 4.63040043 -13 4 C-6.125 4.875 -6.125 4.875 -5 6 C-4.89229822 7.44763088 -4.85318869 8.9004333 -4.84178162 10.35202026 C-4.8319928 11.2914447 -4.82220398 12.23086914 -4.81211853 13.19876099 C-4.80348534 14.75722244 -4.80348534 14.75722244 -4.79467773 16.34716797 C-4.78477814 17.43489502 -4.77487854 18.52262207 -4.76467896 19.64331055 C-4.73294724 23.25958031 -4.70825642 26.87586317 -4.68359375 30.4921875 C-4.6630301 32.99464263 -4.64203379 35.49709423 -4.62062073 37.99954224 C-4.57095563 43.92808495 -4.52572446 49.85665118 -4.48259836 55.78524411 C-4.42852053 63.18108594 -4.36746057 70.57686733 -4.30664062 77.97265625 C-4.22675406 87.77976335 -4.14914926 97.58688371 -4.07592773 107.39404297 C-4.06814804 108.42896881 -4.06036835 109.46389465 -4.05235291 110.53018188 C-4.04538391 111.47524597 -4.03841492 112.42031006 -4.03123474 113.39401245 C-4.02212145 114.62680593 -4.02212145 114.62680593 -4.01282406 115.88450432 C-4.00248757 117.58964357 -4 119.29482941 -4 121 C-3.6937566 122.33981486 -3.36548445 123.67511887 -3 125 C-2.01 124.67 -1.02 124.34 0 124 C0 119.38 0 114.76 0 110 C0.33 110 0.66 110 1 110 C1.02317096 96.54371188 1.04093938 83.08742851 1.05181217 69.6311245 C1.05703057 63.38281932 1.06410935 57.13452779 1.07543945 50.88623047 C1.08630531 44.85621634 1.0922847 38.82621534 1.09487724 32.79619217 C1.09672481 30.49571145 1.10033261 28.19523145 1.10573006 25.89475632 C1.1129895 22.67249753 1.11398886 19.45029299 1.11352539 16.22802734 C1.1189183 14.80166962 1.1189183 14.80166962 1.12442017 13.34649658 C1.11731453 8.78061671 0.93803688 4.49269227 0 0 Z " fill="#195579" transform="translate(101,30)"/>
<path d="M0 0 C0 0.99 0 1.98 0 3 C1.32 3.66 2.64 4.32 4 5 C4 5.99 4 6.98 4 8 C4.99 8.33 5.98 8.66 7 9 C7.95619733 12.99795892 8.1039592 16.70803922 8.0625 20.8125 C8.05347656 21.97394531 8.04445312 23.13539062 8.03515625 24.33203125 C8.02355469 25.21246094 8.01195312 26.09289062 8 27 C6.68 27 5.36 27 4 27 C3.67 37.89 3.34 48.78 3 60 C2.67 60 2.34 60 2 60 C1.67 43.83 1.34 27.66 1 11 C-6.66559356 7.16720322 -18.31133479 10.4410244 -26 13 C-26.71542969 13.37125 -27.43085937 13.7425 -28.16796875 14.125 C-30.70869606 15.3384817 -32.35470982 14.73480283 -35 14 C-35 14.99 -35 15.98 -35 17 C-36.37194417 18.00386158 -37.75756745 18.99454252 -39.20703125 19.8828125 C-41.13162564 21.0820151 -42.92943159 22.39888634 -44.75 23.75 C-48 26 -48 26 -50 26 C-49.67 24.68 -49.34 23.36 -49 22 C-48.34 22 -47.68 22 -47 22 C-47 21.01 -47 20.02 -47 19 C-46.34 19 -45.68 19 -45 19 C-44.67 17.68 -44.34 16.36 -44 15 C-42.68 15 -41.36 15 -40 15 C-39.690625 14.13375 -39.690625 14.13375 -39.375 13.25 C-37.51490783 10.20621281 -34.94908576 8.94514167 -32 7 C-31.67 6.01 -31.34 5.02 -31 4 C-21.98486086 -0.12364408 -9.76098151 -3.2536605 0 0 Z " fill="#129BD1" transform="translate(94,25)"/>
<path d="M0 0 C0.33 0 0.66 0 1 0 C1 3.63 1 7.26 1 11 C2.051875 10.67 3.10375 10.34 4.1875 10 C10.05298373 8.49928164 15.99092943 8.83511697 22 9 C21.34 9.33 20.68 9.66 20 10 C20.495 11.485 20.495 11.485 21 13 C21 13.99 21 14.98 21 16 C20.01 16 19.02 16 18 16 C18 16.66 18 17.32 18 18 C16.77023438 17.94457031 15.54046875 17.88914062 14.2734375 17.83203125 C7.05462329 17.68393066 7.05462329 17.68393066 0 19 C-2.6451909 21.70570181 -3.68123548 23.88706524 -4.9296875 27.43359375 C-6 30 -6 30 -7.99609375 31.37890625 C-10 32 -10 32 -12.1875 31.5 C-14 30 -14 30 -14.9375 27.25 C-15.01324466 23.31127749 -14.13628557 21.28072427 -12 18 C-11.01 17.67 -10.02 17.34 -9 17 C-7.89484181 14.87680898 -7.89484181 14.87680898 -7.0625 12.3125 C-5.35525318 7.72919892 -3.51685891 3.51685891 0 0 Z " fill="#0795D3" transform="translate(55,88)"/>
<path d="M0 0 C2.53011111 3.01667094 4.68476975 6.09701829 6.75 9.4375 C11.5661307 16.72220021 18.22885058 20.39196634 26 24 C26 24.66 26 25.32 26 26 C26.78375 26.2475 27.5675 26.495 28.375 26.75 C31.32317108 28.15389099 31.9024777 29.00675737 33 32 C32.01 32.33 31.02 32.66 30 33 C30 32.34 30 31.68 30 31 C29.443125 31.02320313 28.88625 31.04640625 28.3125 31.0703125 C17.87653859 31.31710888 11.78280669 29.12490756 4 22 C-0.40588939 17.65482168 -3.6645638 13.37919327 -6.078125 7.6640625 C-7.02739699 5.65022086 -7.02739699 5.65022086 -10 4 C-8.35 3.67 -6.7 3.34 -5 3 C-4.67 3.99 -4.34 4.98 -4 6 C-2.68 6 -1.36 6 0 6 C0 4.02 0 2.04 0 0 Z " fill="#1784BF" transform="translate(45,128)"/>
<path d="M0 0 C-1.50888831 4.22488728 -4.32623964 5.65504658 -8 8 C-8.33 8.66 -8.66 9.32 -9 10 C-9.66 10.144375 -10.32 10.28875 -11 10.4375 C-11.66 10.623125 -12.32 10.80875 -13 11 C-13.33 11.99 -13.66 12.98 -14 14 C-14.66 14 -15.32 14 -16 14 C-16 14.99 -16 15.98 -16 17 C-16.66 17 -17.32 17 -18 17 C-18.33 18.32 -18.66 19.64 -19 21 C-18.33613281 20.51789062 -17.67226563 20.03578125 -16.98828125 19.5390625 C-15.66376953 18.59160156 -15.66376953 18.59160156 -14.3125 17.625 C-13.44238281 16.99851562 -12.57226562 16.37203125 -11.67578125 15.7265625 C-9.16403048 14.10584157 -6.80700813 13.00141912 -4 12 C-4 11.01 -4 10.02 -4 9 C-2.68 9.66 -1.36 10.32 0 11 C-0.49628906 11.32871094 -0.99257813 11.65742187 -1.50390625 11.99609375 C-10.59634247 18.36252442 -15.32327672 25.90369629 -19.54296875 36.08203125 C-21.04784324 39.09581475 -22.49538901 40.78203305 -25 43 C-25.68320312 43.62261719 -26.36640625 44.24523437 -27.0703125 44.88671875 C-27.74835937 45.48097656 -28.42640625 46.07523438 -29.125 46.6875 C-29.80820312 47.28949219 -30.49140625 47.89148438 -31.1953125 48.51171875 C-33 50 -33 50 -35 51 C-35 49.35 -35 47.7 -35 46 C-28.25 42 -28.25 42 -26 42 C-26 40.02 -26 38.04 -26 36 C-27.5778125 36.9590625 -27.5778125 36.9590625 -29.1875 37.9375 C-32.10828412 39.61754452 -34.6171743 40.58996052 -38 41 C-33.38939887 36.26132662 -33.38939887 36.26132662 -30.9453125 34.62109375 C-28.60909368 32.67424473 -28.07923557 31.23770671 -27.125 28.375 C-25.14099335 22.99771213 -22.32012667 18.63869126 -19 14 C-18.34 13.01 -17.68 12.02 -17 11 C-16.34 11 -15.68 11 -15 11 C-15 10.34 -15 9.68 -15 9 C-12.9055032 7.36570249 -10.82217909 5.85832766 -8.625 4.375 C-8.02171875 3.95476563 -7.4184375 3.53453125 -6.796875 3.1015625 C-2.26537135 0 -2.26537135 0 0 0 Z " fill="#0EABDC" transform="translate(63,30)"/>
<path d="M0 0 C0.66 0 1.32 0 2 0 C5.09677419 4.12903226 5.09677419 4.12903226 4.75 7.25 C4 9 4 9 3 10 C2.76518307 12.18292774 2.58636677 14.37203174 2.4375 16.5625 C2.35371094 17.76003906 2.26992187 18.95757812 2.18359375 20.19140625 C2.09271484 21.58166016 2.09271484 21.58166016 2 23 C7.50092849 23 12.61057868 22.07788426 18 21 C18 16.71 18 12.42 18 8 C21 11 21 11 21.5 14.875 C21.38795656 18.4537994 21.01565569 18.98113289 18.5625 21.9375 C17.716875 22.618125 16.87125 23.29875 16 24 C13.68536925 26.31463075 14.47524557 31.68995502 14.3125 34.8125 C14.25255859 35.72837891 14.19261719 36.64425781 14.13085938 37.58789062 C14.0602832 38.91530273 14.0602832 38.91530273 13.98828125 40.26953125 C13.94227783 41.08010986 13.89627441 41.89068848 13.84887695 42.72583008 C14.01864528 45.28058287 14.77521586 46.77896719 16 49 C16.2136414 51.80472808 15.87638399 54.32702882 15 57 C12.4375 59.5 12.4375 59.5 10 61 C10.75 56.25 10.75 56.25 13 54 C12.6730244 51.38419521 12.17960932 49.35921863 11 47 C10.91691362 45.62451844 10.89263984 44.24514204 10.90234375 42.8671875 C10.90556641 42.06152344 10.90878906 41.25585938 10.91210938 40.42578125 C10.92048828 39.58402344 10.92886719 38.74226563 10.9375 37.875 C10.94201172 37.02550781 10.94652344 36.17601562 10.95117188 35.30078125 C10.96297126 33.20049091 10.98090694 31.1002367 11 29 C10.34 29.33 9.68 29.66 9 30 C8.34444881 32.52733235 8.34444881 32.52733235 8 35 C7.34 35 6.68 35 6 35 C5.67 33.02 5.34 31.04 5 29 C1.93434552 29.65604893 1.93434552 29.65604893 0.9375 31.8125 C0.628125 32.534375 0.31875 33.25625 0 34 C-0.66666667 35.33333333 -1.33333333 36.66666667 -2 38 C-1.01 39.32 -0.02 40.64 1 42 C-1.475 42.495 -1.475 42.495 -4 43 C-4.33 43.99 -4.66 44.98 -5 46 C-4.34 46 -3.68 46 -3 46 C-3.33 48.64 -3.66 51.28 -4 54 C-4.12375 53.4225 -4.2475 52.845 -4.375 52.25 C-5.29604843 48.93422566 -6.04199419 46.70253759 -8.875 44.625 C-11.04194293 43.75266456 -11.04194293 43.75266456 -13.25 44.875 C-13.8275 45.24625 -14.405 45.6175 -15 46 C-15 44.68 -15 43.36 -15 42 C-12.03 41.34 -9.06 40.68 -6 40 C-6.04125 39.236875 -6.0825 38.47375 -6.125 37.6875 C-6 35 -6 35 -4 32 C-2.68 32 -1.36 32 0 32 C0 31.01 0 30.02 0 29 C0.66 29 1.32 29 2 29 C1.67 27.68 1.34 26.36 1 25 C0.34 25 -0.32 25 -1 25 C-1.33 25.99 -1.66 26.98 -2 28 C-3.65 28.33 -5.3 28.66 -7 29 C-6.57847656 28.55269531 -6.15695313 28.10539062 -5.72265625 27.64453125 C-1.46925862 22.99641072 -1.46925862 22.99641072 0 17 C0.75231481 9.37152778 0.75231481 9.37152778 3 6 C2.01 4.02 1.02 2.04 0 0 Z " fill="#1479B7" transform="translate(164,78)"/>
<path d="M0 0 C4.4949298 0 7.02436956 0.97467883 11 3 C12.50037596 7.50112787 12.71487761 12.50776626 11 17 C6.01207023 19.32196731 1.44569367 20.43274024 -4 21 C-5.39883743 18.20232513 -4.93724997 16.1013728 -4.6875 13 C-4.60886719 11.9275 -4.53023437 10.855 -4.44921875 9.75 C-4 7 -4 7 -2 5 C-1.29289322 3.35008418 -0.62056011 1.68437744 0 0 Z " fill="#0480C7" transform="translate(171,82)"/>
<path d="M0 0 C0.33 0.66 0.66 1.32 1 2 C0.67 2.99 0.34 3.98 0 5 C0.66 5.33 1.32 5.66 2 6 C2.33 5.34 2.66 4.68 3 4 C3 4.66 3 5.32 3 6 C3.99 6.33 4.98 6.66 6 7 C2.04 15.25 -1.92 23.5 -6 32 C-1.38 32 3.24 32 8 32 C7.67 23.09 7.34 14.18 7 5 C6.34 5 5.68 5 5 5 C5 3.35 5 1.7 5 0 C6.32 0.33 7.64 0.66 9 1 C9.33 11.89 9.66 22.78 10 34 C4.72 34 -0.56 34 -6 34 C-6.66 33.34 -7.32 32.68 -8 32 C-7.6875 29.625 -7.6875 29.625 -7 27 C-6.7215625 25.8553125 -6.7215625 25.8553125 -6.4375 24.6875 C-6.293125 24.130625 -6.14875 23.57375 -6 23 C-6.99 23 -7.98 23 -9 23 C-8.68950274 21.56206608 -8.3765224 20.1246682 -8.0625 18.6875 C-7.88847656 17.88699219 -7.71445312 17.08648437 -7.53515625 16.26171875 C-7 14 -7 14 -6 11 C-5.34 11 -4.68 11 -4 11 C-3.87882812 10.37351562 -3.75765625 9.74703125 -3.6328125 9.1015625 C-3.38144531 7.87566406 -3.38144531 7.87566406 -3.125 6.625 C-2.96257813 5.81289062 -2.80015625 5.00078125 -2.6328125 4.1640625 C-2 2 -2 2 0 0 Z " fill="#119CD2" transform="translate(66,63)"/>
<path d="M0 0 C2 2 2 2 2.1953125 4.8203125 C2.16050781 6.45613281 2.16050781 6.45613281 2.125 8.125 C2.10695312 9.22070312 2.08890625 10.31640625 2.0703125 11.4453125 C2.04710937 12.28835937 2.02390625 13.13140625 2 14 C4.64 14.33 7.28 14.66 10 15 C10 15.99 10 16.98 10 18 C9.34 18.33 8.68 18.66 8 19 C7.53348793 21.12576782 7.53348793 21.12576782 7.375 23.5625 C7.30023438 24.38878906 7.22546875 25.21507813 7.1484375 26.06640625 C7.09945312 26.70449219 7.05046875 27.34257813 7 28 C3.17679443 29.42258812 0.08718695 30.24042276 -4 30 C-4.66 28.35 -5.32 26.7 -6 25 C-6.66 25 -7.32 25 -8 25 C-8.48915663 18.64096386 -8.48915663 18.64096386 -6.1875 15.625 C-4 14 -4 14 -1 13 C-1.01160156 12.14535156 -1.02320313 11.29070312 -1.03515625 10.41015625 C-1.04417969 9.30542969 -1.05320313 8.20070313 -1.0625 7.0625 C-1.07410156 5.96035156 -1.08570313 4.85820313 -1.09765625 3.72265625 C-1 1 -1 1 0 0 Z " fill="#0685CA" transform="translate(130,68)"/>
<path d="M0 0 C0.99 0.33 1.98 0.66 3 1 C3 1.66 3 2.32 3 3 C1.35 3.33 -0.3 3.66 -2 4 C-2 5.32 -2 6.64 -2 8 C-2.61359375 8.06058594 -3.2271875 8.12117187 -3.859375 8.18359375 C-6.22179047 8.8211165 -6.22179047 8.8211165 -7.265625 11.28515625 C-7.59046875 12.20167969 -7.9153125 13.11820313 -8.25 14.0625 C-8.58515625 14.98160156 -8.9203125 15.90070313 -9.265625 16.84765625 C-9.50796875 17.55792969 -9.7503125 18.26820313 -10 19 C-16.15234375 19.09765625 -16.15234375 19.09765625 -18 19 C-19 18 -19 18 -19.09765625 16.15234375 C-19.06510417 14.1015625 -19.03255208 12.05078125 -19 10 C-19.99 10.495 -19.99 10.495 -21 11 C-21 11.99 -21 12.98 -21 14 C-21.66 14 -22.32 14 -23 14 C-23.390625 8.04296875 -23.390625 8.04296875 -23 6 C-20.69258351 3.48636512 -19.39736414 3.02464274 -15.9765625 2.8125 C-14.87054688 2.874375 -13.76453125 2.93625 -12.625 3 C-7.48916188 3.14394165 -4.47003556 2.70554784 0 0 Z " fill="#087EC5" transform="translate(145,120)"/>
<path d="M0 0 C0.99 0 1.98 0 3 0 C4.6875 2 4.6875 2 6 4 C6.66 3.01 7.32 2.02 8 1 C8.02505615 1.82725586 8.0501123 2.65451172 8.07592773 3.50683594 C8.19196349 7.25471192 8.314656 11.00234125 8.4375 14.75 C8.47681641 16.05195312 8.51613281 17.35390625 8.55664062 18.6953125 C8.61948242 20.57089844 8.61948242 20.57089844 8.68359375 22.484375 C8.72025146 23.63647461 8.75690918 24.78857422 8.79467773 25.97558594 C8.88941104 28.90815407 8.88941104 28.90815407 9.64477539 31.28222656 C9.76199951 31.8490918 9.87922363 32.41595703 10 33 C9.34 33.66 8.68 34.32 8 35 C4.875 34.625 4.875 34.625 2 34 C-0.5951959 27.1237526 -0.22410999 20.33183682 -0.125 13.0625 C-0.11597656 11.80630859 -0.10695313 10.55011719 -0.09765625 9.25585938 C-0.07419249 6.17037478 -0.04136201 3.08528795 0 0 Z " fill="#0683C7" transform="translate(73,104)"/>
<path d="M0 0 C3.40312738 1.05875074 6.01353231 2.00902154 9 4 C9 4.66 9 5.32 9 6 C7.68 6.33 6.36 6.66 5 7 C7.77260299 8.93798263 7.77260299 8.93798263 10 10 C10 13.3 10 16.6 10 20 C11.32 19.67 12.64 19.34 14 19 C14 20.32 14 21.64 14 23 C14.66 23.33 15.32 23.66 16 24 C14.71222656 23.86078125 14.71222656 23.86078125 13.3984375 23.71875 C9.12937147 24.07205202 6.82037156 25.87269449 3.625 28.5 C3.07972656 28.92925781 2.53445312 29.35851562 1.97265625 29.80078125 C0.63817606 30.85431825 -0.68238739 31.92544214 -2 33 C-2.66 32.67 -3.32 32.34 -4 32 C-3.67 31.01 -3.34 30.02 -3 29 C-1.68 29 -0.36 29 1 29 C0.67 27.68 0.34 26.36 0 25 C1.65 25 3.3 25 5 25 C3.33075929 21.95865509 3.33075929 21.95865509 1 21 C1.804375 20.2575 2.60875 19.515 3.4375 18.75 C5.76988591 16.24695171 6.63534394 15.2819045 7 12 C6.195625 11.7525 5.39125 11.505 4.5625 11.25 C0.90890445 9.96803665 -2.54054814 8.43858811 -6.046875 6.8046875 C-7.9561344 5.8730214 -7.9561344 5.8730214 -10 6 C-10 12.93 -10 19.86 -10 27 C-10.33 27 -10.66 27 -11 27 C-11 19.74 -11 12.48 -11 5 C-8.70370006 3.85185003 -6.92301914 3.69230191 -4.375 3.4375 C-3.14910156 3.31181641 -3.14910156 3.31181641 -1.8984375 3.18359375 C-0.95871094 3.09271484 -0.95871094 3.09271484 0 3 C0 2.01 0 1.02 0 0 Z " fill="#1587C3" transform="translate(145,54)"/>
<path d="M0 0 C3.01240062 4.59329828 3.41998821 8.67604526 3.34057617 14.02490234 C3.34101425 14.80606415 3.34145233 15.58722595 3.34190369 16.39205933 C3.33982476 18.95694556 3.31653671 21.5211664 3.29296875 24.0859375 C3.28736959 25.87097822 3.283101 27.65602357 3.28010559 29.44107056 C3.26868197 34.12649387 3.23923627 38.81163571 3.20599365 43.49694824 C3.17523913 48.28308302 3.16158877 53.06926352 3.14648438 57.85546875 C3.11436411 67.23710245 3.0631979 76.61852777 3 86 C2.01 86.495 2.01 86.495 1 87 C0.67 61.92 0.34 36.84 0 11 C-0.33 11 -0.66 11 -1 11 C-1.66 7.7 -2.32 4.4 -3 1 C-5.97 1.66 -8.94 2.32 -12 3 C-8.892562 -3.214876 -5.98598499 -2.45852955 0 0 Z " fill="#22485A" transform="translate(82,49)"/>
<path d="M0 0 C0.33 0.99 0.66 1.98 1 3 C1.66 3 2.32 3 3 3 C3 3.66 3 4.32 3 5 C3.66 5.33 4.32 5.66 5 6 C5 8.64 5 11.28 5 14 C4.34 14 3.68 14 3 14 C3 15.32 3 16.64 3 18 C-2.94 17.01 -2.94 17.01 -9 16 C-10.04976964 12.85069107 -10.10131595 10.61185544 -10.0625 7.3125 C-10.05347656 6.31863281 -10.04445312 5.32476562 -10.03515625 4.30078125 C-10.02355469 3.54152344 -10.01195312 2.78226563 -10 2 C-6.7 2 -3.4 2 0 2 C0 1.34 0 0.68 0 0 Z " fill="#0675C3" transform="translate(150,141)"/>
<path d="M0 0 C0 0.66 0 1.32 0 2 C0.99 2 1.98 2 3 2 C5.41685712 6.22949995 6.34833144 9.12335991 6 14 C3.36 13.67 0.72 13.34 -2 13 C-2 13.66 -2 14.32 -2 15 C-2.66 15 -3.32 15 -4 15 C-4 14.34 -4 13.68 -4 13 C-5.32 13 -6.64 13 -8 13 C-8.33 13.66 -8.66 14.32 -9 15 C-10.09658936 11.71023192 -9.79953138 10.28696233 -9 7 C-11.31 6.34 -13.62 5.68 -16 5 C-15.34 4.67 -14.68 4.34 -14 4 C-13.67 3.34 -13.34 2.68 -13 2 C-12.01 2.33 -11.02 2.66 -10 3 C-9.67 2.34 -9.34 1.68 -9 1 C-5.85554549 0.15014743 -3.29227921 0 0 0 Z " fill="#0588CC" transform="translate(164,57)"/>
<path d="M0 0 C1.8125 1.25 1.8125 1.25 3 3 C3 4.32 3 5.64 3 7 C3.66 7 4.32 7 5 7 C4.75 10.375 4.75 10.375 4 14 C2 15.3125 2 15.3125 0 16 C-0.33 16.66 -0.66 17.32 -1 18 C-4.3 16.35 -7.6 14.7 -11 13 C-11 11.02 -11 9.04 -11 7 C-8.525 7.495 -8.525 7.495 -6 8 C-6 7.01 -6 6.02 -6 5 C-6.66 5 -7.32 5 -8 5 C-7.625 3.0625 -7.625 3.0625 -7 1 C-4.45132831 -0.27433584 -2.82594567 -0.27570202 0 0 Z " fill="#0690CF" transform="translate(133,42)"/>
<path d="M0 0 C0.99 0 1.98 0 3 0 C2.34 1.65 1.68 3.3 1 5 C1.66 5.33 2.32 5.66 3 6 C2.67 6.33 2.34 6.66 2 7 C2.66 7.66 3.32 8.32 4 9 C3.6875 10.8125 3.6875 10.8125 3 13 C2.8453125 14.175625 2.8453125 14.175625 2.6875 15.375 C1.78091591 18.83650289 0.17757345 21.18196377 -2 24 C-5 25 -5 25 -7.125 24.4375 C-9 23 -9 23 -9.9375 20.25 C-10.01324466 16.31127749 -9.13628557 14.28072427 -7 11 C-6.01 10.67 -5.02 10.34 -4 10 C-2.75501391 7.67730041 -2.75501391 7.67730041 -1.8125 4.9375 C-1.46832031 4.01839844 -1.12414063 3.09929687 -0.76953125 2.15234375 C-0.51558594 1.44207031 -0.26164062 0.73179688 0 0 Z " fill="#0C9AD4" transform="translate(50,95)"/>
<path d="M0 0 C0.33 0 0.66 0 1 0 C1.125 2.375 1.125 2.375 1 5 C0.34 5.66 -0.32 6.32 -1 7 C-1.59834554 8.52056618 -2.13506656 10.06612088 -2.625 11.625 C-3.01558594 12.85089844 -3.01558594 12.85089844 -3.4140625 14.1015625 C-3.60742188 14.72804688 -3.80078125 15.35453125 -4 16 C-4.66 16 -5.32 16 -6 16 C-6.12375 17.2375 -6.2475 18.475 -6.375 19.75 C-6.75746305 22.8762197 -7.30549523 25.28879237 -9 28 C-5.9254644 27.2236068 -5.9254644 27.2236068 -4 25 C-4.75 30.75 -4.75 30.75 -7 33 C-6.99077298 35.54713404 -6.99077298 35.54713404 -6 38 C-4.03241727 39.36020151 -4.03241727 39.36020151 -2 40 C-4.64 40.33 -7.28 40.66 -10 41 C-11.04005702 37.61981469 -11.08004482 34.5219721 -11 31 C-14.62096134 36.44628202 -17.49697031 41.95916856 -20 48 C-20.66 48 -21.32 48 -22 48 C-19.4655413 39.36371245 -15.52028843 31.48446749 -11.5625 23.4375 C-10.88686703 22.05297961 -10.21173335 20.66821545 -9.53710938 19.28320312 C-6.39353895 12.83776962 -3.22354402 6.40586625 0 0 Z " fill="#109BD3" transform="translate(66,58)"/>
<path d="M0 0 C4.875 0.875 4.875 0.875 6 2 C6.08700342 3.63472882 6.10701063 5.27314055 6.09765625 6.91015625 C6.09443359 7.89951172 6.09121094 8.88886719 6.08789062 9.90820312 C6.07951172 10.94912109 6.07113281 11.99003906 6.0625 13.0625 C6.05798828 14.10728516 6.05347656 15.15207031 6.04882812 16.22851562 C6.03699913 18.8190666 6.02051689 21.40950559 6 24 C5.67 24 5.34 24 5 24 C4.93941406 23.14535156 4.87882813 22.29070312 4.81640625 21.41015625 C4.73261719 20.30542969 4.64882812 19.20070313 4.5625 18.0625 C4.48128906 16.96035156 4.40007812 15.85820313 4.31640625 14.72265625 C4.29581916 12.08890097 4.29581916 12.08890097 3 11 C3 15.29 3 19.58 3 24 C1.68 24 0.36 24 -1 24 C-1.33 24.99 -1.66 25.98 -2 27 C-2.66 27.33 -3.32 27.66 -4 28 C-4 31.3 -4 34.6 -4 38 C-7 35 -7 35 -7.375 32.125 C-6.95805848 28.65048735 -6.07367988 26.79149215 -4 24 C-3.34 23.67 -2.68 23.34 -2 23 C-1.56448874 20.02899756 -1.56448874 20.02899756 -1.4375 16.5 C-1.12058841 10.96536537 -0.6641112 5.50263567 0 0 Z " fill="#158ECD" transform="translate(127,58)"/>
<path d="M0 0 C2.3125 0.1875 2.3125 0.1875 5 1 C8.30175081 5.36302785 9.12627006 9.36710732 9.12025452 14.73297119 C9.12162918 15.6808551 9.12300385 16.62873901 9.12442017 17.60534668 C9.12082489 18.63824829 9.11722961 19.6711499 9.11352539 20.73535156 C9.11367142 21.82833557 9.11381744 22.92131958 9.1139679 24.04742432 C9.11327096 27.6618447 9.10548876 31.27621361 9.09765625 34.890625 C9.09579129 37.39597546 9.09436776 39.90132629 9.09336853 42.40667725 C9.08993987 48.32810211 9.08205751 54.24951044 9.07201904 60.17092681 C9.05974001 67.57488542 9.05437302 74.97884632 9.04882812 82.3828125 C9.0381016 95.58855106 9.02122457 108.79427436 9 122 C8.67 122 8.34 122 8 122 C7.99365209 121.16427822 7.99365209 121.16427822 7.98717594 120.31167316 C7.88382729 106.74892014 7.77512235 93.18621913 7.66066074 79.62355518 C7.60546962 73.06472765 7.55205561 66.50589562 7.50268555 59.94702148 C7.45498593 53.61871648 7.40264094 47.29046547 7.34705925 40.96222496 C7.3266611 38.54649892 7.30794384 36.13075809 7.29092598 33.71500587 C7.26682589 30.33444493 7.23677874 26.9539857 7.20532227 23.57348633 C7.1995668 22.57223221 7.19381134 21.57097809 7.18788147 20.53938293 C7.17809265 19.61536682 7.16830383 18.69135071 7.15821838 17.73933411 C7.15176583 16.94013959 7.14531328 16.14094507 7.1386652 15.31753254 C6.98668366 12.77744195 6.66700029 10.45746916 6 8 C5.34 7.67 4.68 7.34 4 7 C3.67 6.01 3.34 5.02 3 4 C0.99983534 2.79117904 0.99983534 2.79117904 -1 2 C-0.67 1.34 -0.34 0.68 0 0 Z " fill="#258FC0" transform="translate(94,26)"/>
<path d="M0 0 C0.5 2.6875 0.5 2.6875 0 6 C-1.91768122 7.53677194 -3.86332828 8.61910139 -6.0546875 9.7265625 C-8.33118741 11.2168014 -9.00093056 12.50758466 -10 15 C-10.99 14.67 -11.98 14.34 -13 14 C-13.12375 14.928125 -13.2475 15.85625 -13.375 16.8125 C-14 20 -14 20 -16 23 C-16.39013716 24.9896995 -16.73202649 26.99019869 -17 29 C-17.99 28.67 -18.98 28.34 -20 28 C-20.125 24.625 -20.125 24.625 -20 21 C-19.34 20.34 -18.68 19.68 -18 19 C-17.67 17.845 -17.34 16.69 -17 15.5 C-16 12 -16 12 -14 10 C-13.35232207 7.42938689 -13.35232207 7.42938689 -13 5 C-12.0925 4.731875 -11.185 4.46375 -10.25 4.1875 C-6.31116734 2.74831114 -4.18732553 0 0 0 Z " fill="#0DA8DE" transform="translate(37,66)"/>
<path d="M0 0 C1.98 0 3.96 0 6 0 C6.33 0.99 6.66 1.98 7 3 C6.67 3.66 6.34 4.32 6 5 C5.34 5 4.68 5 4 5 C4 5.66 4 6.32 4 7 C2.68 7 1.36 7 0 7 C0 7.99 0 8.98 0 10 C-1.32 9.67 -2.64 9.34 -4 9 C-4 9.99 -4 10.98 -4 12 C-5.37194417 13.00386158 -6.75756745 13.99454252 -8.20703125 14.8828125 C-10.13162564 16.0820151 -11.92943159 17.39888634 -13.75 18.75 C-17 21 -17 21 -19 21 C-18.67 19.68 -18.34 18.36 -18 17 C-17.34 17 -16.68 17 -16 17 C-16 16.01 -16 15.02 -16 14 C-15.34 14 -14.68 14 -14 14 C-13.67 12.68 -13.34 11.36 -13 10 C-11.68 10 -10.36 10 -9 10 C-8.690625 9.13375 -8.690625 9.13375 -8.375 8.25 C-6.50830178 5.19540291 -3.9858093 3.90583572 -1 2 C-0.67 1.34 -0.34 0.68 0 0 Z " fill="#0CA7DC" transform="translate(63,30)"/>
<path d="M0 0 C0.6875 1.75 0.6875 1.75 1 4 C-0.5 6 -0.5 6 -2 8 C-2.85245472 10.62794959 -3.42011855 13.30091544 -4 16 C-4.32897071 17.33441641 -4.66107329 18.66807749 -5 20 C-3.28982274 17.4347341 -2.09582189 15.12039035 -0.875 12.3125 C-0.34519531 11.10013672 -0.34519531 11.10013672 0.1953125 9.86328125 C0.59363281 8.94095703 0.59363281 8.94095703 1 8 C2.32 8.33 3.64 8.66 5 9 C4.65066406 9.79921875 4.30132812 10.5984375 3.94140625 11.421875 C0.78085236 19.05018071 -0.83635222 25.74322546 -1 34 C-1.33 34 -1.66 34 -2 34 C-2 30.7 -2 27.4 -2 24 C-2.66 24 -3.32 24 -4 24 C-4 24.66 -4 25.32 -4 26 C-5.32 26 -6.64 26 -8 26 C-7.79375 26.61875 -7.5875 27.2375 -7.375 27.875 C-7.25125 28.57625 -7.1275 29.2775 -7 30 C-7.66 30.66 -8.32 31.32 -9 32 C-9.02689216 30.52093108 -9.04634621 29.04172517 -9.0625 27.5625 C-9.07410156 26.73878906 -9.08570313 25.91507813 -9.09765625 25.06640625 C-9 23 -9 23 -8 22 C-7.91938977 20.35495422 -7.86098867 18.7088057 -7.8125 17.0625 C-7.31235586 10.57758021 -4.65964598 4.65964598 0 0 Z " fill="#0EA6D8" transform="translate(23,72)"/>
<path d="M0 0 C6.875 0.875 6.875 0.875 8 2 C8.10649085 3.4685345 8.14405397 4.94213213 8.15390015 6.41448975 C8.16250061 7.36785217 8.17110107 8.3212146 8.17996216 9.3034668 C8.18422211 10.35800049 8.18848206 11.41253418 8.19287109 12.49902344 C8.20104858 13.60304504 8.20922607 14.70706665 8.21765137 15.84454346 C8.24256442 19.51614835 8.25903673 23.18771443 8.2734375 26.859375 C8.27876118 28.10992928 8.28408485 29.36048355 8.28956985 30.64893341 C8.31081299 35.90405822 8.32994233 41.15917716 8.34119225 46.41433334 C8.35742503 53.94811164 8.39057649 61.48137358 8.44759309 69.01495719 C8.49096955 74.94855735 8.50693822 80.88204231 8.51332474 86.81580353 C8.5200548 89.34043298 8.53532198 91.86505442 8.55921555 94.38957977 C8.59073316 97.9212542 8.59092319 101.45162107 8.58349609 104.98339844 C8.59990143 106.02983521 8.61630676 107.07627197 8.63320923 108.15441895 C8.56510579 116.05194397 8.56510579 116.05194397 5.46353149 119.1885376 C4.6505661 119.78632019 3.83760071 120.38410278 3 121 C4 119 5 117 6 115 C6.0963035 113.52211689 6.13066411 112.03997433 6.13371277 110.55895996 C6.13797775 109.62512985 6.14224274 108.69129974 6.14663696 107.72917175 C6.14618378 106.70157242 6.14573059 105.67397308 6.14526367 104.61523438 C6.14862228 103.53550858 6.1519809 102.45578278 6.15544128 101.34333801 C6.16497122 97.76013044 6.16689532 94.17696947 6.16796875 90.59375 C6.17117953 88.11275208 6.17454346 85.63175435 6.17805481 83.15075684 C6.18405093 77.94538941 6.18589418 72.7400386 6.18530273 67.53466797 C6.18476798 62.17819251 6.1918234 56.821789 6.20581055 51.46533203 C6.22242603 45.01156676 6.22936023 38.55786632 6.22869301 32.1040802 C6.22987705 29.63840875 6.23432238 27.17273672 6.24202538 24.70707703 C6.25176946 21.26622993 6.24896954 17.82561608 6.24291992 14.38476562 C6.25134918 12.84336662 6.25134918 12.84336662 6.25994873 11.27082825 C6.25575424 10.33699814 6.25155975 9.40316803 6.24723816 8.44104004 C6.24778293 7.62692909 6.24832769 6.81281815 6.24888897 5.97403717 C6.17551592 3.76678254 6.17551592 3.76678254 4 2 C2.68252676 1.30251417 1.35085807 0.63040043 0 0 Z " fill="#2B7BA4" transform="translate(88,34)"/>
<path d="M0 0 C2.58904845 2.54135546 3.22222204 4.4968636 3.328125 8.01171875 C3.31896548 9.57050313 3.29217053 11.12925923 3.25 12.6875 C3.23831787 13.49316406 3.22663574 14.29882812 3.21459961 15.12890625 C2.94451736 29.11096528 2.94451736 29.11096528 1 33 C0.34 33 -0.32 33 -1 33 C-2.15103145 26.56343211 -2.18359395 20.21450964 -2.1875 13.6875 C-2.19974609 12.59115234 -2.21199219 11.49480469 -2.22460938 10.36523438 C-2.22654297 9.32044922 -2.22847656 8.27566406 -2.23046875 7.19921875 C-2.23457764 6.24877686 -2.23868652 5.29833496 -2.24291992 4.3190918 C-2 2 -2 2 0 0 Z " fill="#0494D0" transform="translate(78,61)"/>
<path d="M0 0 C1.32 0.66 2.64 1.32 4 2 C3.67 2.99 3.34 3.98 3 5 C2.34 5 1.68 5 1 5 C1 5.99 1 6.98 1 8 C-0.32 8 -1.64 8 -3 8 C-3.33 10.97 -3.66 13.94 -4 17 C-5.62414378 17.19477739 -7.24936423 17.38059458 -8.875 17.5625 C-9.77992188 17.66691406 -10.68484375 17.77132812 -11.6171875 17.87890625 C-14 18 -14 18 -16 17 C-16 16.34 -16 15.68 -16 15 C-15.01 15 -14.02 15 -13 15 C-13 13.02 -13 11.04 -13 9 C-11.02 8.67 -9.04 8.34 -7 8 C-6.67 7.01 -6.34 6.02 -6 5 C-4.35 4.67 -2.7 4.34 -1 4 C-0.67 2.68 -0.34 1.36 0 0 Z " fill="#097FC2" transform="translate(163,102)"/>
<path d="M0 0 C0.66 0 1.32 0 2 0 C2 1.32 2 2.64 2 4 C-0.4375 6.125 -0.4375 6.125 -3 8 C-3.33 8.66 -3.66 9.32 -4 10 C-2.02 9.67 -0.04 9.34 2 9 C2 8.01 2 7.02 2 6 C5.63 6.33 9.26 6.66 13 7 C13 7.33 13 7.66 13 8 C11.824375 8 10.64875 8 9.4375 8 C4.55953018 8.61516138 2.38062753 10.98586362 -0.6015625 14.73046875 C-2.65306046 18.05985511 -3.21126368 21.18777445 -4 25 C-4.99 25.66 -5.98 26.32 -7 27 C-7 25.68 -7 24.36 -7 23 C-6.34 23 -5.68 23 -5 23 C-5.144375 21.741875 -5.28875 20.48375 -5.4375 19.1875 C-5.55931641 18.12595703 -5.55931641 18.12595703 -5.68359375 17.04296875 C-5.97170735 14.80603607 -5.97170735 14.80603607 -7 12 C-7.66 12 -8.32 12 -9 12 C-9 11.34 -9 10.68 -9 10 C-7.0324413 8.14000715 -4.94444402 6.46609802 -2.84765625 4.75390625 C-0.75201831 3.03994919 -0.75201831 3.03994919 0 0 Z " fill="#1D74B1" transform="translate(160,132)"/>
<path d="M0 0 C0.66 0 1.32 0 2 0 C2.66 5.94 3.32 11.88 4 18 C2.68 17.67 1.36 17.34 0 17 C0.33 18.98 0.66 20.96 1 23 C-2.12777365 21.43611317 -2.67121756 19.17752323 -4 16 C-5.11260425 11.13356576 -5.10275329 6.90112573 -4 2 C-2.68 2 -1.36 2 0 2 C0 1.34 0 0.68 0 0 Z " fill="#1DA3D3" transform="translate(19,96)"/>
<path d="M0 0 C1.32 0.66 2.64 1.32 4 2 C3.50371094 2.32871094 3.00742187 2.65742187 2.49609375 2.99609375 C-6.59634247 9.36252442 -11.32327672 16.90369629 -15.54296875 27.08203125 C-17.04784324 30.09581475 -18.49538901 31.78203305 -21 34 C-21.68320312 34.62261719 -22.36640625 35.24523437 -23.0703125 35.88671875 C-23.74835937 36.48097656 -24.42640625 37.07523438 -25.125 37.6875 C-25.80820312 38.28949219 -26.49140625 38.89148438 -27.1953125 39.51171875 C-29 41 -29 41 -31 42 C-31 40.35 -31 38.7 -31 37 C-24.25 33 -24.25 33 -22 33 C-22 32.01 -22 31.02 -22 30 C-21.01 30 -20.02 30 -19 30 C-18.89816406 29.30519531 -18.79632813 28.61039063 -18.69140625 27.89453125 C-17.88282994 24.50947448 -16.53324287 21.77712981 -14.9375 18.6875 C-14.38964844 17.61886719 -13.84179688 16.55023438 -13.27734375 15.44921875 C-12.64505859 14.23685547 -12.64505859 14.23685547 -12 13 C-11.34 13 -10.68 13 -10 13 C-9.979375 12.278125 -9.95875 11.55625 -9.9375 10.8125 C-8.57987768 6.73963305 -5.69931507 5.00771141 -2 3 C-1.34 3 -0.68 3 0 3 C0 2.01 0 1.02 0 0 Z " fill="#297790" transform="translate(59,39)"/>
<path d="M0 0 C4.79179811 5.56466877 4.79179811 5.56466877 5 9 C4.0625 12.25 4.0625 12.25 3 15 C3.66 15.66 4.32 16.32 5 17 C5.39764263 18.98821313 5.73775349 20.98944339 6 23 C-0.24939078 18.53614944 -3.59816318 12.80367363 -7 6 C-7.99 5.34 -8.98 4.68 -10 4 C-8.35 3.67 -6.7 3.34 -5 3 C-4.67 3.99 -4.34 4.98 -4 6 C-2.68 6 -1.36 6 0 6 C0 4.02 0 2.04 0 0 Z " fill="#1B7CAB" transform="translate(45,128)"/>
<path d="M0 0 C0.99 0 1.98 0 3 0 C2.67 0.99 2.34 1.98 2 3 C1.34 3 0.68 3 0 3 C-0.433125 3.86625 -0.433125 3.86625 -0.875 4.75 C-1.91666667 6.83333333 -2.95833333 8.91666667 -4 11 C-3.01 12.32 -2.02 13.64 -1 15 C-2.65 15.33 -4.3 15.66 -6 16 C-6.33 16.99 -6.66 17.98 -7 19 C-6.34 19 -5.68 19 -5 19 C-5.33 21.64 -5.66 24.28 -6 27 C-6.12375 26.4225 -6.2475 25.845 -6.375 25.25 C-7.29604843 21.93422566 -8.04199419 19.70253759 -10.875 17.625 C-13.04194293 16.75266456 -13.04194293 16.75266456 -15.25 17.875 C-16.11625 18.431875 -16.11625 18.431875 -17 19 C-17 17.68 -17 16.36 -17 15 C-14.03 14.34 -11.06 13.68 -8 13 C-8.061875 11.8553125 -8.061875 11.8553125 -8.125 10.6875 C-8 8 -8 8 -6 5 C-4.68 5 -3.36 5 -2 5 C-2 4.01 -2 3.02 -2 2 C-1.34 2 -0.68 2 0 2 C0 1.34 0 0.68 0 0 Z " fill="#1A628D" transform="translate(166,105)"/>
<path d="M0 0 C3.40312738 1.05875074 6.01353231 2.00902154 9 4 C9 4.66 9 5.32 9 6 C7.68 6.33 6.36 6.66 5 7 C5 8.32 5 9.64 5 11 C1.66851716 9.94367617 -1.55607826 8.78782492 -4.75 7.375 C-7.71883932 5.87012 -7.71883932 5.87012 -10 6 C-10 12.93 -10 19.86 -10 27 C-10.33 27 -10.66 27 -11 27 C-11 19.74 -11 12.48 -11 5 C-8.70370006 3.85185003 -6.92301914 3.69230191 -4.375 3.4375 C-3.14910156 3.31181641 -3.14910156 3.31181641 -1.8984375 3.18359375 C-0.95871094 3.09271484 -0.95871094 3.09271484 0 3 C0 2.01 0 1.02 0 0 Z " fill="#144C6A" transform="translate(145,54)"/>
<path d="M0 0 C3.02030524 1.31317619 4.51659119 2.29685991 6.375 5 C7 7 7 7 6 10 C5.7525 9.21625 5.505 8.4325 5.25 7.625 C3.82980627 4.64259316 2.99407067 4.1589951 0 3 C-0.33 2.67 -0.66 2.34 -1 2 C-3.33297433 1.95907063 -5.66705225 1.95758277 -8 2 C-8.33 3.32 -8.66 4.64 -9 6 C-8.34 6 -7.68 6 -7 6 C-7 6.99 -7 7.98 -7 9 C-8.32 9.33 -9.64 9.66 -11 10 C-11 11.32 -11 12.64 -11 14 C-9.68 14.66 -8.36 15.32 -7 16 C-7 17.32 -7 18.64 -7 20 C-10.83968859 18.5435664 -12.31006462 16.71785783 -14 13 C-14.58071759 8.35425928 -13.80097884 5.73463846 -11 2 C-7.28957469 -0.47361688 -4.30137325 -0.54607278 0 0 Z " fill="#2B8CB8" transform="translate(134,41)"/>
<path d="M0 0 C1.32 0.33 2.64 0.66 4 1 C4.95619733 4.99795892 5.1039592 8.70803922 5.0625 12.8125 C5.05347656 13.97394531 5.04445313 15.13539062 5.03515625 16.33203125 C5.02355469 17.21246094 5.01195313 18.09289062 5 19 C3.68 19 2.36 19 1 19 C1 21.97 1 24.94 1 28 C0.67 28 0.34 28 0 28 C0 18.76 0 9.52 0 0 Z " fill="#0697D7" transform="translate(97,33)"/>
<path d="M0 0 C1.32 0.33 2.64 0.66 4 1 C4.33 11.89 4.66 22.78 5 34 C-0.28 34 -5.56 34 -11 34 C-11.66 33.34 -12.32 32.68 -13 32 C-12.625 29.375 -12.625 29.375 -12 27 C-11.67 27 -11.34 27 -11 27 C-11 28.65 -11 30.3 -11 32 C-6.38 32 -1.76 32 3 32 C2.67 23.09 2.34 14.18 2 5 C1.34 5 0.68 5 0 5 C0 3.35 0 1.7 0 0 Z " fill="#3296C0" transform="translate(71,63)"/>
<path d="M0 0 C3.96 0 7.92 0 12 0 C13.65787368 4.1446842 14.31567476 6.53350085 14.625 10.8125 C14.69976562 11.78832031 14.77453125 12.76414063 14.8515625 13.76953125 C14.90054688 14.50558594 14.94953125 15.24164063 15 16 C17.97 16 20.94 16 24 16 C24 16.66 24 17.32 24 18 C24.66 18.33 25.32 18.66 26 19 C22.89951072 20.55024464 20.42105782 20.28992015 17 20 C14.24670979 18.20437595 12.47372539 16.94745078 11 14 C11.00864083 11.72314088 11.13048722 9.46453697 11.2578125 7.19140625 C11.17223109 4.94456998 11.17223109 4.94456998 9.75390625 3.2578125 C7.68122868 1.7713934 6.3379689 1.51950565 3.8125 1.3125 C1.9253125 1.1578125 1.9253125 1.1578125 0 1 C0 0.67 0 0.34 0 0 Z " fill="#267DB0" transform="translate(126,141)"/>
<path d="M0 0 C0.99 0 1.98 0 3 0 C3.33 10.89 3.66 21.78 4 33 C5.32 33 6.64 33 8 33 C8.33 31.68 8.66 30.36 9 29 C9.625 30.875 9.625 30.875 10 33 C9.34 33.66 8.68 34.32 8 35 C4.875 34.625 4.875 34.625 2 34 C-0.5951959 27.1237526 -0.22410999 20.33183682 -0.125 13.0625 C-0.11597656 11.80630859 -0.10695313 10.55011719 -0.09765625 9.25585938 C-0.07419249 6.17037478 -0.04136201 3.08528795 0 0 Z " fill="#308AB8" transform="translate(73,104)"/>
<path d="M0 0 C0.33 0 0.66 0 1 0 C1.1489943 5.14106727 1.25751582 10.28086202 1.32958984 15.42358398 C1.35965146 17.17055163 1.40051371 18.91736972 1.45263672 20.66381836 C1.5259298 23.18380707 1.55956001 25.7017914 1.5859375 28.22265625 C1.61690521 28.99585709 1.64787292 29.76905792 1.67977905 30.56568909 C1.68307684 35.95233825 0.28023703 38.67240882 -3.39682007 42.58811951 C-6.67817775 45.4779292 -9.63553837 47 -14 47 C-14 46.34 -14 45.68 -14 45 C-11.09399739 43.74335022 -9.20395416 43 -6 43 C-6 42.34 -6 41.68 -6 41 C-5.34 41 -4.68 41 -4 41 C-4 40.01 -4 39.02 -4 38 C-3.34 38 -2.68 38 -2 38 C-2 33.38 -2 28.76 -2 24 C-1.67 24 -1.34 24 -1 24 C-0.67 16.08 -0.34 8.16 0 0 Z " fill="#39779E" transform="translate(103,116)"/>
<path d="M0 0 C1.23556641 0.01740234 1.23556641 0.01740234 2.49609375 0.03515625 C3.32238281 0.04417969 4.14867188 0.05320313 5 0.0625 C5.63808594 0.07410156 6.27617188 0.08570313 6.93359375 0.09765625 C6.93359375 0.75765625 6.93359375 1.41765625 6.93359375 2.09765625 C7.71734375 2.34515625 8.50109375 2.59265625 9.30859375 2.84765625 C12.25676483 4.25154724 12.83607145 5.10441362 13.93359375 8.09765625 C12.94359375 8.42765625 11.95359375 8.75765625 10.93359375 9.09765625 C10.93359375 8.43765625 10.93359375 7.77765625 10.93359375 7.09765625 C10.02867188 7.11505859 10.02867188 7.11505859 9.10546875 7.1328125 C7.90664062 7.14634766 7.90664062 7.14634766 6.68359375 7.16015625 C5.50023438 7.17755859 5.50023438 7.17755859 4.29296875 7.1953125 C2.02668373 7.10150931 0.10470425 6.73006688 -2.06640625 6.09765625 C-2.44859392 4.44150968 -2.78035727 2.77308601 -3.06640625 1.09765625 C-2.06640625 0.09765625 -2.06640625 0.09765625 0 0 Z " fill="#097BC3" transform="translate(64.06640625,151.90234375)"/>
<path d="M0 0 C4.40595131 1.3462629 6.58291088 3.06103995 9 7 C9.32849725 10.15357364 9.13232821 12.50677666 8.3125 15.5625 C7.88798987 18.87367903 9.28991862 20.22111776 11 23 C10.6875 25.3125 10.6875 25.3125 10 27 C9.67 25.68 9.34 24.36 9 23 C8.34 23 7.68 23 7 23 C5.375 21.8125 5.375 21.8125 4 20 C3.75 17.375 3.75 17.375 4 15 C4.33 14.67 4.66 14.34 5 14 C4.93521484 11.9590495 4.93521484 11.9590495 4.625 9.625 C4.53476563 8.83351563 4.44453125 8.04203125 4.3515625 7.2265625 C4.03660446 4.83581507 4.03660446 4.83581507 3 2 C2.01 2 1.02 2 0 2 C0 1.34 0 0.68 0 0 Z " fill="#235A77" transform="translate(164,57)"/>
<path d="M0 0 C-1.50888831 4.22488728 -4.32623964 5.65504658 -8 8 C-8.33 8.66 -8.66 9.32 -9 10 C-9.66 10.144375 -10.32 10.28875 -11 10.4375 C-11.66 10.623125 -12.32 10.80875 -13 11 C-13.33 11.99 -13.66 12.98 -14 14 C-14.66 14 -15.32 14 -16 14 C-16 14.99 -16 15.98 -16 17 C-16.5775 17.2475 -17.155 17.495 -17.75 17.75 C-20.3002997 19.16683317 -22.01785701 20.87627537 -24 23 C-22.50328459 18.50985376 -20.16631659 14.52151236 -17 11 C-16.34 11 -15.68 11 -15 11 C-15 10.34 -15 9.68 -15 9 C-12.9055032 7.36570249 -10.82217909 5.85832766 -8.625 4.375 C-8.02171875 3.95476563 -7.4184375 3.53453125 -6.796875 3.1015625 C-2.26537135 0 -2.26537135 0 0 0 Z " fill="#30A3C0" transform="translate(63,30)"/>
<path d="M0 0 C0.66 0 1.32 0 2 0 C2.226875 0.598125 2.45375 1.19625 2.6875 1.8125 C3.88767957 4.20956202 3.88767957 4.20956202 6.5625 5.5 C9 7 9 7 9.875 9.125 C9.936875 10.053125 9.936875 10.053125 10 11 C8.44655141 12.55344859 6.77483728 12.30519274 4.625 12.5 C1.82678686 12.75521162 -0.30810511 13.1027017 -3 14 C-3 13.34 -3 12.68 -3 12 C-2.01 11.34 -1.02 10.68 0 10 C0 9.01 0 8.02 0 7 C1 4.8125 1 4.8125 2 3 C1.34 3 0.68 3 0 3 C0 2.01 0 1.02 0 0 Z " fill="#1691CB" transform="translate(136,46)"/>
<path d="M0 0 C0.66 0 1.32 0 2 0 C1.96519531 1.44632812 1.96519531 1.44632812 1.9296875 2.921875 C1.91164062 4.18515625 1.89359375 5.4484375 1.875 6.75 C1.85179687 8.00296875 1.82859375 9.2559375 1.8046875 10.546875 C1.99088322 13.83881533 2.46620266 15.21127756 4 18 C4.2136414 20.80472808 3.87638399 23.32702882 3 26 C0.4375 28.5 0.4375 28.5 -2 30 C-1.25 25.25 -1.25 25.25 1 23 C0.6730244 20.38419521 0.17960932 18.35921863 -1 16 C-1.37483219 10.58698217 -0.90773927 5.3329682 0 0 Z " fill="#194761" transform="translate(176,109)"/>
<path d="M0 0 C0.33 0 0.66 0 1 0 C1.02689216 1.47906892 1.04634621 2.95827483 1.0625 4.4375 C1.07410156 5.26121094 1.08570313 6.08492188 1.09765625 6.93359375 C1 9 1 9 0 10 C-0.41764158 16.24519846 -0.56463637 22.19582294 2 28 C2.26425781 28.63035156 2.52851563 29.26070312 2.80078125 29.91015625 C3.51572102 31.61449133 4.25565264 33.30830146 5 35 C4.01 35.495 4.01 35.495 3 36 C2.17988688 34.44148245 1.36923787 32.87798284 0.5625 31.3125 C0.11003906 30.44238281 -0.34242187 29.57226562 -0.80859375 28.67578125 C-4.96428693 19.34250313 -3.38684847 9.29367347 0 0 Z " fill="#369CBC" transform="translate(15,85)"/>
<path d="M0 0 C-0.99 0.495 -0.99 0.495 -2 1 C-2.33 2.32 -2.66 3.64 -3 5 C-0.36 5.66 2.28 6.32 5 7 C5 7.33 5 7.66 5 8 C4.19175781 8.19335938 3.38351563 8.38671875 2.55078125 8.5859375 C1.48214844 8.84632812 0.41351563 9.10671875 -0.6875 9.375 C-1.74324219 9.63023438 -2.79898438 9.88546875 -3.88671875 10.1484375 C-6.70406766 10.91905489 -9.31668325 11.85498543 -12 13 C-12 12.01 -12 11.02 -12 10 C-10.68 10 -9.36 10 -8 10 C-8 9.34 -8 8.68 -8 8 C-7.34 8 -6.68 8 -6 8 C-6 6.35 -6 4.7 -6 3 C-7.98 3 -9.96 3 -12 3 C-7.97869817 0.31913211 -4.73968522 -1.57989507 0 0 Z " fill="#207E9D" transform="translate(75,27)"/>
<path d="M0 0 C0.33 0 0.66 0 1 0 C1.04898438 0.63808594 1.09796875 1.27617187 1.1484375 1.93359375 C1.22320312 2.75988281 1.29796875 3.58617187 1.375 4.4375 C1.44460937 5.26121094 1.51421875 6.08492187 1.5859375 6.93359375 C1.72257812 7.61550781 1.85921875 8.29742187 2 9 C2.66 9.33 3.32 9.66 4 10 C4 13.96 4 17.92 4 22 C3.34 22 2.68 22 2 22 C1.67 22.99 1.34 23.98 1 25 C1 24.34 1 23.68 1 23 C0.34 22.67 -0.32 22.34 -1 22 C-0.83628906 21.35675781 -0.67257813 20.71351563 -0.50390625 20.05078125 C0.15334676 16.07159829 0.106353 12.2118563 0.0625 8.1875 C0.05798828 7.39923828 0.05347656 6.61097656 0.04882812 5.79882812 C0.03711312 3.86585239 0.01917998 1.93291607 0 0 Z " fill="#0779C1" transform="translate(97,132)"/>
<path d="M0 0 C0.33 0 0.66 0 1 0 C1.125 2.375 1.125 2.375 1 5 C0.34 5.66 -0.32 6.32 -1 7 C-1.59834554 8.52056618 -2.13506656 10.06612088 -2.625 11.625 C-2.88539062 12.44226563 -3.14578125 13.25953125 -3.4140625 14.1015625 C-3.60742188 14.72804688 -3.80078125 15.35453125 -4 16 C-4.66 16 -5.32 16 -6 16 C-6.33 18.64 -6.66 21.28 -7 24 C-7.99 24 -8.98 24 -10 24 C-10.33 24.99 -10.66 25.98 -11 27 C-11.33 26.34 -11.66 25.68 -12 25 C-11.33496094 23.01635742 -11.33496094 23.01635742 -10.234375 20.60546875 C-9.83863281 19.73212891 -9.44289062 18.85878906 -9.03515625 17.95898438 C-8.61105469 17.04439453 -8.18695313 16.12980469 -7.75 15.1875 C-7.34136719 14.28451172 -6.93273438 13.38152344 -6.51171875 12.45117188 C-2.51038872 3.69585007 -2.51038872 3.69585007 0 0 Z " fill="#299EC8" transform="translate(66,58)"/>
<path d="M0 0 C1.32 0.33 2.64 0.66 4 1 C3.47599609 2.19882813 3.47599609 2.19882813 2.94140625 3.421875 C-0.21914764 11.05018071 -1.83635222 17.74322546 -2 26 C-2.33 26 -2.66 26 -3 26 C-4.95744681 7.46808511 -4.95744681 7.46808511 0 0 Z " fill="#1D6881" transform="translate(24,80)"/>
<path d="M0 0 C3.465 1.485 3.465 1.485 7 3 C7 3.66 7 4.32 7 5 C4.69 4.67 2.38 4.34 0 4 C0 2.68 0 1.36 0 0 Z M-11 3 C-3.61538462 3.49230769 -3.61538462 3.49230769 -0.5 6.0625 C-0.005 6.701875 0.49 7.34125 1 8 C0.67 8.66 0.34 9.32 0 10 C-4.10811428 8.55007731 -7.46855666 6.54592427 -11 4 C-11 3.67 -11 3.34 -11 3 Z " fill="#15619C" transform="translate(62,148)"/>
<path d="M0 0 C0.5625 1.9375 0.5625 1.9375 1 4 C0.67 4.33 0.34 4.66 0 5 C-0.04063832 6.66617115 -0.042721 8.33388095 0 10 C1.65 10.33 3.3 10.66 5 11 C4.67 9.68 4.34 8.36 4 7 C4.99 7 5.98 7 7 7 C7.33 5.68 7.66 4.36 8 3 C8.66 3 9.32 3 10 3 C8.74194623 7.50802601 7.09592835 10.4912812 4 14 C2.02 13.34 0.04 12.68 -2 12 C-3.01911045 8.10885099 -3.16782969 6.39403493 -1.5625 2.625 C-1.046875 1.75875 -0.53125 0.8925 0 0 Z " fill="#2D7692" transform="translate(43,106)"/>
<path d="M0 0 C0.66 0 1.32 0 2 0 C5.09677419 4.12903226 5.09677419 4.12903226 4.75 7.25 C4 9 4 9 3 10 C2.75520869 13.03722557 2.61591635 16.07340606 2.4765625 19.1171875 C1.950152 22.30153952 1.36870601 22.97141588 -1 25 C-1.33 25.99 -1.66 26.98 -2 28 C-3.65 28.33 -5.3 28.66 -7 29 C-6.57847656 28.55269531 -6.15695313 28.10539062 -5.72265625 27.64453125 C-1.46925862 22.99641072 -1.46925862 22.99641072 0 17 C0.75231481 9.37152778 0.75231481 9.37152778 3 6 C1.515 3.03 1.515 3.03 0 0 Z " fill="#2D7EA7" transform="translate(164,78)"/>
<path d="M0 0 C1.32 0 2.64 0 4 0 C4.226875 0.94875 4.45375 1.8975 4.6875 2.875 C5.69083714 6.19323388 5.69083714 6.19323388 8.625 7.375 C9.40875 7.58125 10.1925 7.7875 11 8 C11 9.32 11 10.64 11 12 C8.83125748 11.49396008 7.00032373 11.00016187 5 10 C4.67 9.01 4.34 8.02 4 7 C1.49552484 5.78130071 1.49552484 5.78130071 -1 5 C-0.67 3.35 -0.34 1.7 0 0 Z " fill="#1082C4" transform="translate(138,98)"/>
<path d="M0 0 C0 0.66 0 1.32 0 2 C-4.38461538 5 -4.38461538 5 -7 5 C-7 5.66 -7 6.32 -7 7 C-13.75 6.25 -13.75 6.25 -16 4 C-15.34 4 -14.68 4 -14 4 C-13.67 3.34 -13.34 2.68 -13 2 C-12.01 2.33 -11.02 2.66 -10 3 C-9.67 2.34 -9.34 1.68 -9 1 C-5.85554549 0.15014743 -3.29227921 0 0 0 Z " fill="#0B8ECA" transform="translate(164,57)"/>
<path d="M0 0 C6.75 1.75 6.75 1.75 9 4 C9.99 4.33 10.98 4.66 12 5 C12 5.66 12 6.32 12 7 C13.32 7 14.64 7 16 7 C16 8.32 16 9.64 16 11 C9.02772043 9.81322901 4.85563349 6.00978058 0 1 C0 0.67 0 0.34 0 0 Z " fill="#217BA7" transform="translate(19,121)"/>
<path d="M0 0 C0.33 0 0.66 0 1 0 C1 2.64 1 5.28 1 8 C1.66 6.68 2.32 5.36 3 4 C3.66 4 4.32 4 5 4 C5 7.66666667 5 11.33333333 5 15 C2.67241689 14.06896676 1.25642868 13.34617872 -0.25 11.3125 C-1.46638897 7.56196733 -1.79009505 3.58019011 0 0 Z " fill="#1F7AB2" transform="translate(121,126)"/>
<path d="M0 0 C1.05960938 0.00676758 1.05960938 0.00676758 2.140625 0.01367188 C3.88545275 0.02546125 5.630237 0.04339676 7.375 0.0625 C5.53000718 2.45842817 4.5995697 3.02444791 1.5625 3.5390625 C-0.0153125 3.61253906 -0.0153125 3.61253906 -1.625 3.6875 C-4.92811813 3.85751343 -7.47774287 4.01341429 -10.625 5.0625 C-10.25 3.125 -10.25 3.125 -9.625 1.0625 C-6.55966836 -0.47016582 -3.35745728 -0.04026471 0 0 Z " fill="#1A99DA" transform="translate(62.625,102.9375)"/>
<path d="M0 0 C1.62580966 0.11398665 3.25067157 0.24155659 4.875 0.375 C5.77992188 0.44460937 6.68484375 0.51421875 7.6171875 0.5859375 C10 1 10 1 12 3 C10.71222656 2.86078125 10.71222656 2.86078125 9.3984375 2.71875 C5.12937147 3.07205202 2.82037156 4.87269449 -0.375 7.5 C-0.92027344 7.92925781 -1.46554688 8.35851562 -2.02734375 8.80078125 C-3.36182394 9.85431825 -4.68238739 10.92544214 -6 12 C-6.66 11.67 -7.32 11.34 -8 11 C-7.67 10.01 -7.34 9.02 -7 8 C-5.68 8 -4.36 8 -3 8 C-3.33 6.68 -3.66 5.36 -4 4 C-2.35 4 -0.7 4 1 4 C0.67 2.68 0.34 1.36 0 0 Z " fill="#1C5A81" transform="translate(149,75)"/>
<path d="M0 0 C4.29 0.33 8.58 0.66 13 1 C13 1.66 13 2.32 13 3 C17.62 3.66 22.24 4.32 27 5 C27 5.33 27 5.66 27 6 C17.20501495 6.93384391 9.09908155 4.19666604 0 1 C0 0.67 0 0.34 0 0 Z " fill="#18425D" transform="translate(62,158)"/>
<path d="M0 0 C0.2475 0.53625 0.495 1.0725 0.75 1.625 C4.01228031 7.82333259 7.27618809 11.14743429 13 15 C13 15.33 13 15.66 13 16 C10.36 16 7.72 16 5 16 C4.67 15.01 4.34 14.02 4 13 C3.34 12.67 2.68 12.34 2 12 C0.58355646 7.90805199 -0.26260116 4.33291912 0 0 Z " fill="#2296C1" transform="translate(22,107)"/>
<path d="M0 0 C3.40312738 1.05875074 6.01353231 2.00902154 9 4 C9 4.66 9 5.32 9 6 C7.68 6.33 6.36 6.66 5 7 C5 8.32 5 9.64 5 11 C-0.75 9.25 -0.75 9.25 -3 7 C-1.35 7 0.3 7 2 7 C2.33 6.01 2.66 5.02 3 4 C2.01 3.34 1.02 2.68 0 2 C0 1.34 0 0.68 0 0 Z " fill="#1A6792" transform="translate(145,54)"/>
<path d="M0 0 C1.98 0 3.96 0 6 0 C1.25 4.875 1.25 4.875 -1 6 C-1.62599243 9.38035912 -2 12.56169885 -2 16 C-3.5 15 -3.5 15 -5 13 C-5.27345479 10.28153765 -5.13491285 7.74322801 -5 5 C-3.35 4.67 -1.7 4.34 0 4 C0 2.68 0 1.36 0 0 Z " fill="#226288" transform="translate(143,124)"/>
<path d="M0 0 C1.4375 2.625 1.4375 2.625 2 5 C1.34 5 0.68 5 0 5 C0 6.98 0 8.96 0 11 C-0.33 11 -0.66 11 -1 11 C-1.66 7.7 -2.32 4.4 -3 1 C-5.97 1.66 -8.94 2.32 -12 3 C-8.88224755 -3.23550491 -6.0087331 -2.40349324 0 0 Z " fill="#2692B0" transform="translate(82,49)"/>
<path d="M0 0 C1.5211364 3.0422728 0.75639612 5.36243858 -0.00390625 8.59765625 C-1.74834225 12.80482543 -5.01463142 15.84940488 -9 18 C-11.2578125 17.6796875 -11.2578125 17.6796875 -13 17 C-12.09507813 16.41605469 -12.09507813 16.41605469 -11.171875 15.8203125 C-4.84480141 11.39136098 -2.12926669 7.40031851 0 0 Z " fill="#32A3BF" transform="translate(38,53)"/>
<path d="M0 0 C1.32 0.33 2.64 0.66 4 1 C4 10.9 4 20.8 4 31 C3.67 31 3.34 31 3 31 C2.67 22.42 2.34 13.84 2 5 C1.34 5 0.68 5 0 5 C0 3.35 0 1.7 0 0 Z " fill="#3489AA" transform="translate(71,63)"/>
<path d="M0 0 C0.33 0 0.66 0 1 0 C1.36347705 4.36172464 0.3205445 6.76022085 -1.875 10.5 C-3.87576875 13.94093563 -5.60709641 17.26755931 -7 21 C-7.66 21 -8.32 21 -9 21 C-6.76686274 13.55620912 -3.59727921 6.88023305 0 0 Z " fill="#3299BB" transform="translate(53,85)"/>
<path d="M0 0 C0.66 0 1.32 0 2 0 C2.66 1.65 3.32 3.3 4 5 C4.61488281 4.95359375 5.22976562 4.9071875 5.86328125 4.859375 C8.29745175 4.75067201 10.57936402 4.70815027 13 5 C15.0625 7 15.0625 7 16 9 C15.01 9 14.02 9 13 9 C12.67 8.67 12.34 8.34 12 8 C9.4572048 7.50668876 6.9059331 7.10021963 4.34765625 6.6953125 C2 6 2 6 0 3 C0 2.01 0 1.02 0 0 Z " fill="#206183" transform="translate(122,93)"/>
<path d="M0 0 C1.98 0.66 3.96 1.32 6 2 C5.01 2.495 5.01 2.495 4 3 C4 3.66 4 4.32 4 5 C-1.94 5.495 -1.94 5.495 -8 6 C-8 5.01 -8 4.02 -8 3 C-6.8553125 3.0928125 -6.8553125 3.0928125 -5.6875 3.1875 C-2.95474688 3.25898085 -2.95474688 3.25898085 -1.1875 1.5 C-0.795625 1.005 -0.40375 0.51 0 0 Z " fill="#0AA1E1" transform="translate(92,28)"/>
<path d="M0 0 C3.96 0.33 7.92 0.66 12 1 C12 1.66 12 2.32 12 3 C12.66 3.33 13.32 3.66 14 4 C10.86128812 5.56935594 8.46144178 5.35201103 5 5 C2.0625 2.5 2.0625 2.5 0 0 Z " fill="#1A5382" transform="translate(138,156)"/>
<path d="M0 0 C3 3 3 3 3.5 6.875 C3.38259685 10.41666176 3.0093902 10.9883858 0.625 13.9375 C-2 16 -2 16 -4 17 C-3.67 15.68 -3.34 14.36 -3 13 C-2.01 13 -1.02 13 0 13 C0 8.71 0 4.42 0 0 Z " fill="#1D3F55" transform="translate(182,86)"/>
<path d="M0 0 C7.57142857 6.28571429 7.57142857 6.28571429 10 10 C7.69 9.67 5.38 9.34 3 9 C2.01 6.03 1.02 3.06 0 0 Z " fill="#1D5E86" transform="translate(141,96)"/>
<path d="M0 0 C3.4375 1.3125 3.4375 1.3125 7 3 C8.1577506 6.47325181 8.06866652 9.36067448 8 13 C7 11 6 9 5 7 C4.01 6.67 3.02 6.34 2 6 C2 5.34 2 4.68 2 4 C1.34 3.67 0.68 3.34 0 3 C0 2.01 0 1.02 0 0 Z " fill="#2183B9" transform="translate(175,82)"/>
<path d="M0 0 C3.30133235 0.2676756 4.62503298 0.5603835 6.8125 3.125 C8.24140574 6.58445601 8.21814153 9.29159398 8 13 C7.67 13 7.34 13 7 13 C6.87625 12.195625 6.7525 11.39125 6.625 10.5625 C6.41875 9.716875 6.2125 8.87125 6 8 C5.34 7.67 4.68 7.34 4 7 C3.67 6.01 3.34 5.02 3 4 C0.99983534 2.79117904 0.99983534 2.79117904 -1 2 C-0.67 1.34 -0.34 0.68 0 0 Z " fill="#218AB6" transform="translate(94,26)"/>
<path d="M0 0 C2.97 0 5.94 0 9 0 C8.67 1.32 8.34 2.64 8 4 C5.03 4 2.06 4 -1 4 C-0.67 2.68 -0.34 1.36 0 0 Z " fill="#0576C4" transform="translate(81,157)"/>
<path d="M0 0 C0.66 0 1.32 0 2 0 C2 1.65 2 3.3 2 5 C3.32 5.33 4.64 5.66 6 6 C6.33 7.98 6.66 9.96 7 12 C3.06451569 8.93906776 0.31883213 6.50884026 -2 2 C-1.34 2 -0.68 2 0 2 C0 1.34 0 0.68 0 0 Z " fill="#1F698C" transform="translate(44,139)"/>
<path d="M0 0 C0.99 0 1.98 0 3 0 C3 0.66 3 1.32 3 2 C4.32 2 5.64 2 7 2 C7 2.99 7 3.98 7 5 C7.99 5.33 8.98 5.66 10 6 C8.68 6 7.36 6 6 6 C6 6.99 6 7.98 6 9 C5.01 9 4.02 9 3 9 C3.061875 8.236875 3.12375 7.47375 3.1875 6.6875 C3.26547287 3.95769419 3.26547287 3.95769419 1.5 2.25 C1.005 1.8375 0.51 1.425 0 1 C0 0.67 0 0.34 0 0 Z " fill="#1496CE" transform="translate(32,123)"/>
<path d="M0 0 C2 0 2 0 3.6875 1 C5.47159468 3.71862047 5.16248173 5.92338986 4.66015625 9.05859375 C3.63112795 12.0847894 1.64760328 13.37070567 -1 15 C-0.25 10.25 -0.25 10.25 2 8 C1.63723355 5.17042171 0.90305236 2.70915709 0 0 Z " fill="#225577" transform="translate(175,124)"/>
<path d="M0 0 C0.99 0 1.98 0 3 0 C3.96070434 2.88211302 4.10581883 4.69850044 4.0625 7.6875 C4.05347656 8.49574219 4.04445313 9.30398437 4.03515625 10.13671875 C4.02355469 10.75160156 4.01195312 11.36648437 4 12 C3.01 12 2.02 12 1 12 C1.020625 11.071875 1.04125 10.14375 1.0625 9.1875 C1.15769604 5.97713989 1.15769604 5.97713989 0 3 C0 2.01 0 1.02 0 0 Z " fill="#06A4E0" transform="translate(15,98)"/>
<path d="M0 0 C0.66 0 1.32 0 2 0 C3.05556451 5.7626003 2.94831638 11.1059076 2.5625 16.9375 C2.51029297 17.81212891 2.45808594 18.68675781 2.40429688 19.58789062 C2.2757979 21.72564632 2.13877359 23.86288669 2 26 C1.67 26 1.34 26 1 26 C0.98018066 25.34402832 0.96036133 24.68805664 0.93994141 24.01220703 C0.84487493 21.04938931 0.73512248 18.08729468 0.625 15.125 C0.5940625 14.09246094 0.563125 13.05992188 0.53125 11.99609375 C0.49257812 11.00996094 0.45390625 10.02382812 0.4140625 9.0078125 C0.3826416 8.09660645 0.3512207 7.18540039 0.31884766 6.24658203 C0.20117489 3.80068814 0.20117489 3.80068814 -2 2 C-1.34 1.34 -0.68 0.68 0 0 Z " fill="#22A2D3" transform="translate(74,60)"/>
<path d="M0 0 C0.66 0.33 1.32 0.66 2 1 C1.88660796 3.64680904 1.75987127 6.29177518 1.625 8.9375 C1.5940625 9.69224609 1.563125 10.44699219 1.53125 11.22460938 C1.4273685 13.15507395 1.22104386 15.07942081 1 17 C0.34 17.33 -0.32 17.66 -1 18 C-1.02684312 15.18743719 -1.04676188 12.37512759 -1.0625 9.5625 C-1.07087891 8.76005859 -1.07925781 7.95761719 -1.08789062 7.13085938 C-1.0965143 5.08704779 -1.0522815 3.04316098 -1 1 C-0.67 0.67 -0.34 0.34 0 0 Z " fill="#2B98BB" transform="translate(127,60)"/>
<path d="M0 0 C1.32 0.33 2.64 0.66 4 1 C4 2.65 4 4.3 4 6 C5.32 6 6.64 6 8 6 C8.33 4.68 8.66 3.36 9 2 C9.625 3.875 9.625 3.875 10 6 C9.34 6.66 8.68 7.32 8 8 C4.875 7.625 4.875 7.625 2 7 C1.34 4.69 0.68 2.38 0 0 Z " fill="#1E5F89" transform="translate(73,131)"/>
<path d="M0 0 C0.66 0.33 1.32 0.66 2 1 C0.7625 1.928125 0.7625 1.928125 -0.5 2.875 C-2.49013007 4.80907007 -2.96918044 5.76250807 -3.33203125 8.55859375 C-3.31432259 11.0555153 -3.21731991 13.51289435 -3 16 C-5.953125 13.359375 -5.953125 13.359375 -6.375 10.125 C-5.95466405 6.62220045 -5.10485728 4.80647637 -3 2 C-2.01 1.34 -1.02 0.68 0 0 Z " fill="#3883AC" transform="translate(126,80)"/>
<path d="M0 0 C0.99 0 1.98 0 3 0 C3.70226141 1.24176695 4.38629109 2.49385599 5.0625 3.75 C5.44535156 4.44609375 5.82820312 5.1421875 6.22265625 5.859375 C7.1312406 8.36140628 6.88336837 9.5332355 6 12 C5.67 10.68 5.34 9.36 5 8 C4.34 8 3.68 8 3 8 C1.375 6.8125 1.375 6.8125 0 5 C-0.1875 2.3125 -0.1875 2.3125 0 0 Z " fill="#1C6183" transform="translate(168,72)"/>
<path d="M0 0 C1.65 0.33 3.3 0.66 5 1 C4.67 3.31 4.34 5.62 4 8 C2.02 8.66 0.04 9.32 -2 10 C-1.2884375 9.38125 -1.2884375 9.38125 -0.5625 8.75 C1.16266518 6.817815 1.56584875 5.51807725 2 3 C1.34 3 0.68 3 0 3 C0 2.01 0 1.02 0 0 Z " fill="#2183B5" transform="translate(150,63)"/>
<path d="M0 0 C6.875 0.875 6.875 0.875 8 2 C8.08685603 3.56172745 8.10702219 5.12729344 8.09765625 6.69140625 C8.09443359 7.63564453 8.09121094 8.57988281 8.08789062 9.55273438 C8.07951172 10.54595703 8.07113281 11.53917969 8.0625 12.5625 C8.05798828 13.55958984 8.05347656 14.55667969 8.04882812 15.58398438 C8.03700007 18.05604849 8.02051849 20.52799518 8 23 C7.67 23 7.34 23 7 23 C6.98018066 22.43490723 6.96036133 21.86981445 6.93994141 21.28759766 C6.84481764 18.73292003 6.73508942 16.17907459 6.625 13.625 C6.5940625 12.73554687 6.563125 11.84609375 6.53125 10.9296875 C6.49257812 10.07890625 6.45390625 9.228125 6.4140625 8.3515625 C6.3826416 7.56604004 6.3512207 6.78051758 6.31884766 5.97119141 C6.1600535 3.76997061 6.1600535 3.76997061 4 2 C2.68252676 1.30251417 1.35085807 0.63040043 0 0 Z " fill="#2A7696" transform="translate(88,34)"/>
<path d="M0 0 C3.63 0.33 7.26 0.66 11 1 C11 1.33 11 1.66 11 2 C9.2365625 2.061875 9.2365625 2.061875 7.4375 2.125 C2.32610508 2.71722936 -0.50123478 5.42469929 -4 9 C-4 8.01 -4 7.02 -4 6 C-3.34 6 -2.68 6 -2 6 C-2 5.01 -2 4.02 -2 3 C-1.34 3 -0.68 3 0 3 C0 2.01 0 1.02 0 0 Z " fill="#1B4B6B" transform="translate(162,138)"/>
<path d="M0 0 C1.98 0.66 3.96 1.32 6 2 C6 2.99 6 3.98 6 5 C6.61875 5.268125 7.2375 5.53625 7.875 5.8125 C10 7 10 7 12 10 C9 10 9 10 6.73828125 8.06640625 C5.93777344 7.24011719 5.13726562 6.41382812 4.3125 5.5625 C3.50425781 4.73878906 2.69601563 3.91507812 1.86328125 3.06640625 C0 1 0 1 0 0 Z " fill="#1C536D" transform="translate(137,103)"/>
<path d="M0 0 C0.598125 0.165 1.19625 0.33 1.8125 0.5 C4.11344336 1.1114124 4.11344336 1.1114124 7 1 C7.33 1.99 7.66 2.98 8 4 C5.64561267 5.42944945 4.51967567 6.08661261 1.75 5.625 C1.1725 5.41875 0.595 5.2125 0 5 C0 3.35 0 1.7 0 0 Z " fill="#1C75A4" transform="translate(149,106)"/>
<path d="M0 0 C0.99 0 1.98 0 3 0 C1.49921893 3.82017001 -0.59183281 5.75370799 -4 8 C-7.3125 8.75 -7.3125 8.75 -10 9 C-10 8.34 -10 7.68 -10 7 C-7.09399739 5.74335022 -5.20395416 5 -2 5 C-2 4.34 -2 3.68 -2 3 C-1.34 3 -0.68 3 0 3 C0 2.01 0 1.02 0 0 Z " fill="#23506B" transform="translate(99,154)"/>
<path d="M0 0 C0.67578125 1.703125 0.67578125 1.703125 1 4 C-0.14453125 6.359375 -0.14453125 6.359375 -1.8125 8.75 C-2.62654297 9.94882813 -2.62654297 9.94882813 -3.45703125 11.171875 C-3.96621094 11.77515625 -4.47539062 12.3784375 -5 13 C-5.66 13 -6.32 13 -7 13 C-5.58832253 7.73829306 -3.25149768 4.27828642 0 0 Z " fill="#34A3C1" transform="translate(23,72)"/>
<path d="M0 0 C0.33 0 0.66 0 1 0 C0.67 3.3 0.34 6.6 0 10 C-0.99 10 -1.98 10 -3 10 C-3.33 10.99 -3.66 11.98 -4 13 C-4.33 12.34 -4.66 11.68 -5 11 C-4.00390625 8.3984375 -4.00390625 8.3984375 -2.5625 5.375 C-2.08941406 4.37210937 -1.61632813 3.36921875 -1.12890625 2.3359375 C-0.75636719 1.56507812 -0.38382813 0.79421875 0 0 Z " fill="#2E97BF" transform="translate(59,72)"/>
<path d="M0 0 C0 2.97 0 5.94 0 9 C-0.66 9 -1.32 9 -2 9 C-2.33 9.99 -2.66 10.98 -3 12 C-3 8.37 -3 4.74 -3 1 C-1 0 -1 0 0 0 Z " fill="#2078BC" transform="translate(178,100)"/>
<path d="M0 0 C0.33 0.66 0.66 1.32 1 2 C-0.21484375 4.8203125 -0.21484375 4.8203125 -1.9375 8.125 C-2.50339844 9.22070312 -3.06929687 10.31640625 -3.65234375 11.4453125 C-4.09707031 12.28835937 -4.54179688 13.13140625 -5 14 C-6.26937991 10.46675783 -5.7575638 8.66899682 -4.1875 5.3125 C-3.83042969 4.52488281 -3.47335938 3.73726563 -3.10546875 2.92578125 C-2 1 -2 1 0 0 Z " fill="#1F5163" transform="translate(66,79)"/>
<path d="M0 0 C0.66 0.33 1.32 0.66 2 1 C-0.41556126 4.19199167 -2.68003538 6.74716687 -6 9 C-6.99 8.34 -7.98 7.68 -9 7 C-6.03 4.69 -3.06 2.38 0 0 Z " fill="#2B85B1" transform="translate(146,73)"/>
<path d="M0 0 C0 0.66 0 1.32 0 2 C-4.40914783 3.10228696 -8.48382401 3.07654536 -13 3 C-13 2.34 -13 1.68 -13 1 C-8.60563789 0.14256349 -4.47427924 -0.08948558 0 0 Z " fill="#2E94BF" transform="translate(89,24)"/>
<path d="M0 0 C1.32 0.66 2.64 1.32 4 2 C4 2.66 4 3.32 4 4 C4.99 4.33 5.98 4.66 7 5 C7 5.33 7 5.66 7 6 C5.35 6 3.7 6 2 6 C2 5.34 2 4.68 2 4 C0.35 4 -1.3 4 -3 4 C-3 3.34 -3 2.68 -3 2 C-2.01 1.34 -1.02 0.68 0 0 Z " fill="#089AD0" transform="translate(29,122)"/>
<path d="M0 0 C0.99 0 1.98 0 3 0 C2.67 0.99 2.34 1.98 2 3 C1.34 3 0.68 3 0 3 C-0.268125 3.61875 -0.53625 4.2375 -0.8125 4.875 C-2 7 -2 7 -5 9 C-5.33 7.68 -5.66 6.36 -6 5 C-4.68 5 -3.36 5 -2 5 C-2 4.01 -2 3.02 -2 2 C-1.34 2 -0.68 2 0 2 C0 1.34 0 0.68 0 0 Z " fill="#1D5D83" transform="translate(166,105)"/>
<path d="M0 0 C0.99 0 1.98 0 3 0 C3 0.66 3 1.32 3 2 C3.99 2.33 4.98 2.66 6 3 C5.67 3.99 5.34 4.98 5 6 C2.03 6 -0.94 6 -4 6 C-4 5.67 -4 5.34 -4 5 C-2.35 4.67 -0.7 4.34 1 4 C0.67 2.68 0.34 1.36 0 0 Z " fill="#1978B1" transform="translate(169,133)"/>
<path d="M0 0 C1.32 0.66 2.64 1.32 4 2 C2.72992786 2.9593419 1.45891081 3.91743294 0.1875 4.875 C-0.87404297 5.67550781 -0.87404297 5.67550781 -1.95703125 6.4921875 C-3.60456297 7.70814781 -5.29624211 8.86416141 -7 10 C-6.61402985 7.20171644 -6.19863427 6.1794116 -4.0625 4.25 C-2 3 -2 3 0 3 C0 2.01 0 1.02 0 0 Z " fill="#23647A" transform="translate(59,39)"/>
<path d="M0 0 C3.71824156 1.23941385 4.67378745 2.9233963 7 6 C7.66 6.66 8.32 7.32 9 8 C6.03 7.505 6.03 7.505 3 7 C3 6.01 3 5.02 3 4 C2.01 4 1.02 4 0 4 C0 2.68 0 1.36 0 0 Z " fill="#256D90" transform="translate(50,138)"/>
<path d="M0 0 C0.66 0 1.32 0 2 0 C1.54177532 3.46941546 1.10868317 6.67395049 0 10 C-0.66 10 -1.32 10 -2 10 C-1.85950482 8.52031676 -1.71245174 7.04125484 -1.5625 5.5625 C-1.48128906 4.73878906 -1.40007812 3.91507812 -1.31640625 3.06640625 C-1 1 -1 1 0 0 Z " fill="#067ECA" transform="translate(173,107)"/>
<path d="M0 0 C2 0 2 0 3.5 1.375 C3.995 1.91125 4.49 2.4475 5 3 C5.66 3.66 6.32 4.32 7 5 C4.6875 5.625 4.6875 5.625 2 6 C1.01 5.34 0.02 4.68 -1 4 C-0.67 2.68 -0.34 1.36 0 0 Z " fill="#0680C7" transform="translate(55,147)"/>
<path d="M0 0 C0.2475 0.53625 0.495 1.0725 0.75 1.625 C2.29665225 4.56363927 4.1451936 7.24770663 6 10 C6.33 10.66 6.66 11.32 7 12 C5.35 11.67 3.7 11.34 2 11 C0.57741188 7.17679443 -0.24042276 4.08718695 0 0 Z " fill="#1F5A72" transform="translate(22,107)"/>
<path d="M0 0 C0.33 0.66 0.66 1.32 1 2 C1.99 2.33 2.98 2.66 4 3 C2.02 7.455 2.02 7.455 0 12 C-0.33 12 -0.66 12 -1 12 C-1 9.69 -1 7.38 -1 5 C-0.34 5 0.32 5 1 5 C0.67 3.35 0.34 1.7 0 0 Z " fill="#1F627F" transform="translate(68,67)"/>
<path d="M0 0 C-0.99 0.680625 -0.99 0.680625 -2 1.375 C-2.99 2.179375 -2.99 2.179375 -4 3 C-4 3.66 -4 4.32 -4 5 C-5.65 5.66 -7.3 6.32 -9 7 C-7.53913043 1.4 -7.53913043 1.4 -5.0625 -0.4375 C-3 -1 -3 -1 0 0 Z " fill="#209FCF" transform="translate(76,51)"/>
<path d="M0 0 C0.33 0 0.66 0 1 0 C1.66 4.29 2.32 8.58 3 13 C2.01 13.33 1.02 13.66 0 14 C0 9.38 0 4.76 0 0 Z " fill="#1769A1" transform="translate(101,140)"/>
<path d="M0 0 C0.66 0.33 1.32 0.66 2 1 C1.67 2.32 1.34 3.64 1 5 C1.99 5.33 2.98 5.66 4 6 C3.01 6.99 2.02 7.98 1 9 C0.01 8.01 -0.98 7.02 -2 6 C-1.34 4.02 -0.68 2.04 0 0 Z " fill="#0D8ACE" transform="translate(49,137)"/>
<path d="M0 0 C5.59090909 2.43083004 5.59090909 2.43083004 7.4375 5 C8 7 8 7 7 10 C6.7525 9.21625 6.505 8.4325 6.25 7.625 C4.80505715 4.59062001 3.94434181 4.32970275 1 3 C0.67 2.01 0.34 1.02 0 0 Z " fill="#286076" transform="translate(133,41)"/>
<path d="M0 0 C2.64 0.66 5.28 1.32 8 2 C8 2.66 8 3.32 8 4 C5.36 4 2.72 4 0 4 C0 2.68 0 1.36 0 0 Z " fill="#1B669D" transform="translate(142,139)"/>
<path d="M0 0 C0.66 0.33 1.32 0.66 2 1 C1.01 3.31 0.02 5.62 -1 8 C-1.99 8 -2.98 8 -4 8 C-3.6875 6.0625 -3.6875 6.0625 -3 4 C-2.01 3.67 -1.02 3.34 0 3 C0 2.01 0 1.02 0 0 Z " fill="#049BDA" transform="translate(61,78)"/>
<path d="M0 0 C3.96 0 7.92 0 12 0 C12 1.32 12 2.64 12 4 C11.505 3.690625 11.01 3.38125 10.5 3.0625 C7.02013219 1.58355618 3.75971491 1.37597149 0 1 C0 0.67 0 0.34 0 0 Z " fill="#21597C" transform="translate(126,141)"/>
<path d="M0 0 C0.66 1.32 1.32 2.64 2 4 C-1.28696233 4.79953138 -2.71023192 5.09658936 -6 4 C-5.67 3.01 -5.34 2.02 -5 1 C-3.02 1.495 -3.02 1.495 -1 2 C-0.67 1.34 -0.34 0.68 0 0 Z " fill="#0B90C9" transform="translate(144,53)"/>
<path d="M0 0 C-0.33 0.99 -0.66 1.98 -1 3 C-3.64 2.67 -6.28 2.34 -9 2 C-9 1.34 -9 0.68 -9 0 C-5.67465243 -1.10844919 -3.37817425 -0.84454356 0 0 Z " fill="#1480C1" transform="translate(71,156)"/>
<path d="M0 0 C2.76276177 0.52268466 5.3260876 1.10869587 8 2 C8 2.99 8 3.98 8 5 C6.68 5 5.36 5 4 5 C4 4.01 4 3.02 4 2 C2.68 2 1.36 2 0 2 C0 1.34 0 0.68 0 0 Z " fill="#2983A5" transform="translate(35,123)"/>
<path d="M0 0 C4.95 0 9.9 0 15 0 C15 0.33 15 0.66 15 1 C13.75283203 1.09087891 13.75283203 1.09087891 12.48046875 1.18359375 C10.85044922 1.30927734 10.85044922 1.30927734 9.1875 1.4375 C8.10855469 1.51871094 7.02960937 1.59992188 5.91796875 1.68359375 C2.94010095 1.90212461 2.94010095 1.90212461 0 3 C0 2.01 0 1.02 0 0 Z " fill="#3681A8" transform="translate(52,105)"/>
<path d="M0 0 C0.33 0 0.66 0 1 0 C1 2.64 1 5.28 1 8 C-0.32 8.33 -1.64 8.66 -3 9 C-3.33 8.01 -3.66 7.02 -4 6 C-3.01 5.34 -2.02 4.68 -1 4 C-0.27617533 1.94074861 -0.27617533 1.94074861 0 0 Z " fill="#0C80BE" transform="translate(181,91)"/>
<path d="M0 0 C0.66 0 1.32 0 2 0 C1.4739075 3.78786597 0.61896089 6.17152224 -2 9 C-2.66 9 -3.32 9 -4 9 C-3.67 7.68 -3.34 6.36 -3 5 C-2.34 5 -1.68 5 -1 5 C-0.67 3.35 -0.34 1.7 0 0 Z " fill="#297C93" transform="translate(50,47)"/>
<path d="M0 0 C0.66 0 1.32 0 2 0 C1.6875 3.375 1.6875 3.375 1 7 C0.01 7.66 -0.98 8.32 -2 9 C-2 7.68 -2 6.36 -2 5 C-1.34 5 -0.68 5 0 5 C0 3.35 0 1.7 0 0 Z " fill="#1E4E79" transform="translate(155,150)"/>
<path d="M0 0 C1.98 0 3.96 0 6 0 C1.375 4.875 1.375 4.875 -2 6 C-2 5.34 -2 4.68 -2 4 C-1.34 4 -0.68 4 0 4 C0 2.68 0 1.36 0 0 Z " fill="#1E5175" transform="translate(143,124)"/>
<path d="M0 0 C2.31 0.66 4.62 1.32 7 2 C7 3.65 7 5.3 7 7 C5.83040013 6.02433888 4.66438823 5.044375 3.5 4.0625 C2.8503125 3.51722656 2.200625 2.97195312 1.53125 2.41015625 C1.0259375 1.94480469 0.520625 1.47945313 0 1 C0 0.67 0 0.34 0 0 Z " fill="#237089" transform="translate(19,121)"/>
<path d="M0 0 C0.99 0.33 1.98 0.66 3 1 C3.75 2.9375 3.75 2.9375 4 5 C3.67 5.66 3.34 6.32 3 7 C0.4375 7.625 0.4375 7.625 -2 8 C-1.484375 7.05125 -0.96875 6.1025 -0.4375 5.125 C0.036875 4.09375 0.51125 3.0625 1 2 C0.67 1.34 0.34 0.68 0 0 Z " fill="#247EB4" transform="translate(147,110)"/>
<path d="M0 0 C1.65 0 3.3 0 5 0 C5.33 1.65 5.66 3.3 6 5 C2.83884224 3.63016497 2.0072908 3.0109362 0 0 Z " fill="#227597" transform="translate(121,56)"/>
<path d="M0 0 C3.465 1.485 3.465 1.485 7 3 C7 3.66 7 4.32 7 5 C5.35 5 3.7 5 2 5 C1.34 3.35 0.68 1.7 0 0 Z " fill="#216288" transform="translate(62,148)"/>
<path d="M0 0 C0 0.66 0 1.32 0 2 C-2.97 2.66 -5.94 3.32 -9 4 C-9 3.34 -9 2.68 -9 2 C-5.62902617 0.50178941 -3.79557881 0 0 0 Z " fill="#3489B5" transform="translate(164,57)"/>
<path d="M0 0 C0.99 0 1.98 0 3 0 C3.66 1.98 4.32 3.96 5 6 C3.0625 5.25 3.0625 5.25 1 4 C0.25 1.875 0.25 1.875 0 0 Z " fill="#235E82" transform="translate(121,135)"/>
<path d="M0 0 C1.9375 0.75 1.9375 0.75 4 2 C4.75 4.125 4.75 4.125 5 6 C2.525 5.01 2.525 5.01 0 4 C0 2.68 0 1.36 0 0 Z " fill="#079FDE" transform="translate(23,118)"/>
<path d="M0 0 C0.66 1.32 1.32 2.64 2 4 C0.02 5.32 -1.96 6.64 -4 8 C-3.67 6.68 -3.34 5.36 -3 4 C-2.01 4 -1.02 4 0 4 C0 2.68 0 1.36 0 0 Z " fill="#1E516E" transform="translate(182,95)"/>
<path d="M0 0 C0.66 0.33 1.32 0.66 2 1 C1.01 3.97 0.02 6.94 -1 10 C-1.33 10 -1.66 10 -2 10 C-1.125 2.25 -1.125 2.25 0 0 Z " fill="#1E5E72" transform="translate(45,55)"/>
<path d="M0 0 C1.65 0.99 3.3 1.98 5 3 C4.67 3.99 4.34 4.98 4 6 C2.68 5.34 1.36 4.68 0 4 C0 2.68 0 1.36 0 0 Z " fill="#217BAA" transform="translate(139,50)"/>
</svg>
